<?xml version="1.0" encoding="UTF-8" standalone="no"?>
<svg
   xmlns:dc="http://purl.org/dc/elements/1.1/"
   xmlns:cc="http://creativecommons.org/ns#"
   xmlns:rdf="http://www.w3.org/1999/02/22-rdf-syntax-ns#"
   xmlns:svg="http://www.w3.org/2000/svg"
   xmlns="http://www.w3.org/2000/svg"
   xmlns:sodipodi="http://sodipodi.sourceforge.net/DTD/sodipodi-0.dtd"
   xmlns:inkscape="http://www.inkscape.org/namespaces/inkscape"
   version="1.1"
   xml:space="preserve"
   width="300"
   height="150"
   id="svg33"
   sodipodi:docname="happysocks.svg"
   inkscape:version="0.92.2 5c3e80d, 2017-08-06"><metadata
     id="metadata39"><rdf:RDF><cc:Work
         rdf:about=""><dc:format>image/svg+xml</dc:format><dc:type
           rdf:resource="http://purl.org/dc/dcmitype/StillImage" /><dc:title></dc:title></cc:Work></rdf:RDF></metadata><defs
     id="defs37"><clipPath
       clipPathUnits="userSpaceOnUse"
       id="clipPath73"><rect
         style="fill:none"
         id="rect75"
         width="313.88889"
         height="143.51851"
         x="-5.5555553"
         y="2.8421709e-14" /></clipPath></defs><sodipodi:namedview
     pagecolor="#ffffff"
     bordercolor="#666666"
     borderopacity="1"
     objecttolerance="10"
     gridtolerance="10"
     guidetolerance="10"
     inkscape:pageopacity="0"
     inkscape:pageshadow="2"
     inkscape:window-width="897"
     inkscape:window-height="633"
     id="namedview35"
     showgrid="false"
     inkscape:zoom="1.08"
     inkscape:cx="156.9398"
     inkscape:cy="137.03704"
     inkscape:window-x="0"
     inkscape:window-y="0"
     inkscape:window-maximized="0"
     inkscape:current-layer="svg33" /><g
     id="g69"
     clip-path="url(#clipPath73)"
     transform="matrix(1.0100949,0,0,1.0100949,-2.7964721,0.40304085)"><g
       transform="matrix(1.0490254,0,0,1.0982243,1.8518519,5.5555596)"
       id="g31"
       class="currentLayer"><title
         id="title3">Layer 1</title><g
         class=""
         id="svg_1"><g
           id="svg_2"><g
             id="svg_3"><path
               inkscape:connector-curvature="0"
               id="svg_4"
               d="m 118.3,57.253 c -2,-1.2 -4,-1.4 -5.9,-0.6 -1.9,0.8 -3.7,2.7 -5,5.4 0.2,-3 0.5,-5.6 0.8,-7.9 0,0 0,-0.1 0,-0.1 0,-0.1 0.1,-0.3 0.1,-0.5 0,-0.2 -0.1,-0.5 -0.3,-0.7 -0.5,-0.4 -1.1,-0.1 -1.4,0 -1.7,0.7 -2.7,2.2 -3.2,4.4 -1.4,8.1 -2.4,22.5 -2.4,35.7 0,5.8 0.2,11.5 0.6,16.2 0.4,4.2 3.1,5.5 4.3,5.8 0.3,0.1 1,0.3 1.4,-0.2 0.5,-0.4 0.4,-1.1 0.3,-1.3 v 0 c -0.8,-7.2 -1.2,-16.5 -1.2,-27.5 0.2,0.2 0.4,0.4 0.7,0.6 2.1,1.4 4.6,1.6 6.9,0.7 3.8,-1.5 6.8,-5.9 8.2,-11.9 2.1,-8.3 0.5,-15.5 -3.9,-18.1 z m -1.1,15.3 c -1,5.1 -3,9 -5.5,10.5 -0.8,0.5 -1.6,0.6 -2.1,0.4 v 0 c -1.7,-0.5 -2.5,-3.3 -2.3,-7.2 0.5,-7.4 3.6,-12.8 6.4,-14.9 0.8,-0.6 1.5,-0.9 2,-0.8 0.9,0.3 2.8,5.1 1.5,12 z" /><path
               inkscape:connector-curvature="0"
               id="svg_5"
               d="m 183,62.653 -2.2,-1.4 c -11.6,-7.3 -26,-16.5 -26.2,-28.4 -0.1,-5.7 2.3,-11.6 6.5,-16 4.1,-4.2 9.5,-6.6 15.2,-6.7 4.3,-0.1 8.2,1.5 11.3,4.5 3.5,3.5 5.5,8.8 5.4,14.1 -0.1,4.1 -1.5,9.7 -4.3,12.9 -0.8,0.9 -0.6,1.6 -0.4,2 0.5,0.8 1.7,0.7 2.1,0.6 5.5,-0.8 9.9,-8.2 9.9,-16.8 0,-10 -6.2,-21.7 -23.6,-21.8 -7.9,-0.1 -15.7,3.1 -21.3,8.6 -5.1,5.1 -8,11.7 -8,18.7 0,15.4 14.5,24.5 26.2,31.9 l 5,3.2 c 9.1,5.9 13.2,10.1 10.5,16.3 -2.2,5 -10.7,6.1 -17.4,5.5 -6.7,-0.6 -15,-2.9 -16.6,-10.6 -0.3,-1.5 -1.1,-1.6 -1.5,-1.6 -1.3,0.1 -1.9,2 -2.1,3.6 -0.1,1.1 -0.2,5.1 3.1,8.8 3.3,3.8 8.7,5.9 16,6.2 8,0.4 18.8,-1.9 23.1,-10 3.2,-6.3 4.5,-14 -10.7,-23.6 z" /><path
               inkscape:connector-curvature="0"
               id="svg_6"
               d="m 51,59.253 c 2.3,-0.1 3.9,-1 5,-2.8 0.3,-0.4 0.4,-0.7 0.4,-0.9 0,-0.2 0,-0.3 -0.1,-0.5 -0.2,-0.5 -0.7,-0.8 -1.4,-0.9 -1.2,-0.2 -2.6,-0.3 -4,-0.3 0,-20.9 1,-42.2 2.3,-52.1 v 0 c 0.2,-0.9 -0.2,-1.3 -0.4,-1.5 -0.2,-0.2 -0.7,-0.4 -1.4,-0.1 -2.8,1.1 -3.6,3.6 -3.9,5.6 -1.6,8.4 -3,27.5 -3.4,47.8 -8.8,-0.2 -18.4,0.2 -26,1.2 0,-1.8 0,-3.5 0,-5.3 0,-16.6 0.8,-32.6 2.1,-41.3 v -0.1 -0.1 c 0,-0.6 -0.2,-1.1 -0.6,-1.4 -0.3,-0.2 -0.8,-0.3 -1.4,0 -2.8,1.2 -3.5,3.6 -3.9,5.4 -1.8,8.6 -3.2,26.1 -3.3,43.7 -2.3,0.4 -4.3,0.8 -6,1.3 -2.9,0.8 -4.4,3.8 -4.9,6.4 0,0.1 -0.1,0.4 -0.1,0.7 0,0.4 0.1,0.8 0.5,1.2 0.6,0.6 1.6,0.3 1.9,0.2 2.2,-0.9 5,-1.6 8.7,-2.4 0,9.2 0.4,17.1 1.2,22.8 0.6,5.1 3.7,6.7 6.1,7.1 0.5,0.1 1.1,0.1 1.6,-0.4 0.3,-0.3 0.4,-0.7 0.4,-1 0,-0.2 0,-0.3 0,-0.4 -1,-7 -1.7,-16.4 -2.1,-29.4 7.9,-1.3 17.2,-2.1 25.8,-2.4 0,13 0.5,23 1.3,29.5 0.6,5.2 3.5,6.8 5.7,7.2 0.6,0.1 1.4,0.1 1.8,-0.4 0.2,-0.2 0.4,-0.5 0.4,-1 0,-0.1 0,-0.2 0,-0.3 -1.4,-8.5 -2.1,-21 -2.3,-35.1 z" /><path
               inkscape:connector-curvature="0"
               id="svg_7"
               d="m 275.3,71.953 c -3.3,-7.4 -4,-12.7 -1.9,-14.6 v 0 c 0.5,-0.3 0.7,-0.8 0.8,-1.3 0,-0.3 0,-0.7 -0.5,-1.2 -0.8,-0.8 -1.7,-1.4 -2.7,-1.4 -0.9,0 -1.8,0.3 -2.6,1.1 -2.9,2.7 -5.2,7.9 -7,15.8 -0.1,-0.1 -0.1,-0.1 -0.2,-0.2 -0.6,-0.2 -1,0.2 -1.2,0.4 -0.8,0.8 -1,2 -1,3.1 0,1 0.2,1.8 0.3,2.2 0.2,0.7 0.4,1.3 0.5,1.9 -0.1,0.2 -0.2,0.7 -0.2,0.7 -0.1,0.4 -0.3,0.9 -0.4,1.3 -1.2,2.3 -2.6,3.7 -3.8,4.3 -0.8,0.5 -1.6,0.6 -2.2,0.4 -1.4,-0.4 -3.2,-3.5 -4,-8.2 4.2,-2.3 7.1,-6.1 8,-10.5 0.2,-0.9 0.3,-1.8 0.3,-2.6 0,-2.9 -0.9,-5.6 -2.7,-7.6 -1.4,-1.6 -3,-2.4 -4.6,-2.5 -1.6,0 -3.2,0.7 -4.5,2.1 -0.8,0.9 -2.5,3 -3.9,6.8 0.2,-12.6 1.4,-24.9 2.6,-32.9 v 0.1 c 0.2,-0.6 0,-1 -0.2,-1.2 -0.2,-0.2 -0.6,-0.4 -1.2,-0.3 h -0.1 -0.1 c -1.7,0.7 -2.9,2.3 -3.3,4.5 -2.5,11.4 -3.6,28.9 -2.8,43.6 -1.5,3.7 -4.3,7 -6.9,8.2 -1.2,0.5 -2.4,0.5 -3.4,0 -2,-1 -3.2,-5.1 -3,-10.5 0.3,-6.8 2.8,-12.5 4.6,-14 0.3,-0.3 0.6,-0.3 0.7,-0.3 0.1,0 0.2,0.1 0.4,0.4 0.8,1.3 1.2,5.3 -0.3,9.4 v 0 0 c 0,0.2 -0.1,0.6 0.1,1 0.3,0.4 0.7,0.4 1.2,0.4 h 0.1 c 2.2,-0.1 4.5,-2.7 4.5,-6.9 0,-3 -1.7,-5.8 -4.4,-7.5 -1.5,-1 -3.3,-1 -5,-0.2 -1.4,0.7 -2.6,1.9 -3.7,3.5 -1.8,2.3 -4.5,6 -4.7,6.2 -0.1,0.1 -1,1 -1.1,1.2 -0.9,-3.7 -2.6,-6.6 -4.7,-8 -0.9,-0.6 -1.9,-0.9 -2.8,-0.8 -1.2,-1.2 -2.5,-1.1 -3.4,-0.7 v 0 c -3.1,1.7 -6.2,7.6 -6.9,13.4 -1.5,12.3 4.7,15.8 7.4,16.7 2.3,0.8 4.7,0.4 6.6,-1 2.9,-2.3 4.5,-6.8 4.5,-12.7 0,-0.9 0,-1.8 -0.1,-2.7 0.6,-0.7 1.2,-1.3 1.8,-2.1 -0.1,0.8 -0.2,1.5 -0.3,2.4 -1.1,12.5 4.7,16 8.3,17 2.7,0.7 5.3,0.4 7.5,-0.9 1.4,-0.9 2.6,-2.1 3.6,-3.6 0,0.1 0,0.1 0,0.2 0.4,4 2.4,5.3 4.2,6 h 0.1 0.1 c 0.2,0 1,0.1 1.4,-0.3 0.3,-0.3 0.4,-0.7 0.3,-1.2 -2.6,-16.3 3.3,-28.4 7.1,-30.1 0.8,-0.4 1.2,-0.1 1.4,0.2 0.7,0.9 0.9,2.9 0.5,5.1 -0.3,1.6 -1.9,7.1 -7.8,10.2 v 0 0 c -0.9,0.6 -1.3,1.5 -1.1,2.5 0.8,6.7 4.5,11.6 9.4,12.5 2.6,0.5 5,0 7,-1.6 1.1,-0.9 2,-2.1 2.7,-3.5 1.7,2.5 3.7,4.1 6,4.6 2.4,0.5 4.9,-0.2 6.9,-2.1 2.6,-2.9 2.7,-7.6 -0.2,-14.2 z m -67.4,-10.6 c 1,0.2 2.2,2.6 2.8,6.3 -1.5,-0.8 -2.3,-2.7 -2.5,-3.3 -0.3,-0.9 -0.4,-1.7 -0.4,-2.2 0,-0.4 0,-0.7 0.1,-0.8 z m 3.2,11.4 c 0,5.7 -1.6,9.6 -3.2,10.9 -0.5,0.4 -0.9,0.5 -1.3,0.4 v 0 c -0.8,-0.2 -3.3,-2.9 -3.3,-9 0,-0.7 0,-1.4 0.1,-2.2 0.2,-2.1 0.6,-4.1 1.1,-5.8 1,2.9 3.2,5.3 6.6,5.7 z m 61.3,10.7 c -0.4,0.4 -1.1,0.4 -1.5,0.3 -2,-0.3 -5.1,-2.5 -7.1,-6.6 0,-0.1 0,-0.1 0,-0.2 0,-0.1 0,-0.1 0,-0.2 0.1,-0.5 0.3,-1.1 0.3,-1.1 0.9,-3.7 1.8,-7.7 3.2,-11 0.2,2.5 1.1,5.6 2.7,9.2 0,0 0.3,0.6 0.3,0.6 1.3,3.3 3.2,7.7 2.1,9 z" /><path
               inkscape:connector-curvature="0"
               id="svg_8"
               d="m 95.7,57.253 c -2,-1.2 -4,-1.4 -5.9,-0.6 -1.9,0.8 -3.7,2.7 -5,5.4 0.2,-3 0.5,-5.6 0.8,-7.9 0,0 0,-0.1 0,-0.1 0,-0.1 0.1,-0.3 0.1,-0.5 0,-0.2 -0.1,-0.5 -0.3,-0.7 -0.5,-0.4 -1.1,-0.1 -1.4,0 -1.7,0.7 -2.7,2.2 -3.2,4.4 -0.9,5.1 -1.6,12.7 -2,21 -1.2,3.2 -2.8,4.9 -3.4,4.8 0,0 -0.2,-0.1 -0.3,-0.4 -1.5,-2.4 -2.1,-12.6 0.3,-22.5 0.1,-0.7 -0.1,-1 -0.3,-1.2 -0.2,-0.2 -0.6,-0.4 -1.2,-0.3 -0.4,0.1 -1.3,0.4 -2.1,1.2 -0.6,-1 -1.4,-2 -2.5,-2.7 -1.6,-1 -3.4,-1.1 -5.2,-0.3 -3.7,1.5 -6.8,6.3 -8.5,13.2 -2.6,10.6 0.9,16 5.1,17.5 2.1,0.8 4,0.8 5.6,-0.1 1.6,-0.9 2.8,-2.5 3.7,-5 0.9,2.4 2.4,3.9 4.4,4.7 1.5,0.5 2.8,0.5 4.1,-0.1 0,2 -0.1,4 -0.1,6 0,5.8 0.2,11.5 0.6,16.2 0.4,4.2 3.1,5.5 4.3,5.8 0.3,0.1 0.9,0.3 1.4,-0.2 0.5,-0.4 0.4,-1.1 0.3,-1.3 v 0 c -0.8,-7.2 -1.2,-16.5 -1.2,-27.5 0.2,0.2 0.4,0.4 0.7,0.6 2.1,1.4 4.6,1.6 6.9,0.7 3.8,-1.5 6.8,-5.9 8.2,-11.9 2.1,-8.4 0.5,-15.6 -3.9,-18.2 z m -26.5,10.1 c -0.4,8.6 -3,14.5 -5.3,16.3 -0.5,0.4 -0.9,0.5 -1.2,0.5 -1.1,-0.2 -2.4,-2.3 -2.4,-6.6 0,-1.3 0.1,-2.9 0.4,-4.6 0.9,-5.8 3.8,-10.9 5.9,-12.3 0.5,-0.3 0.7,-0.3 0.8,-0.3 0.9,0.3 2,2.8 1.8,7 z m 25.4,5.2 c -1,5.1 -3,9 -5.5,10.5 -0.8,0.5 -1.6,0.6 -2.1,0.4 v 0 c -1.6,-0.5 -2.5,-3.3 -2.3,-7.2 0.5,-7.4 3.6,-12.8 6.4,-14.9 0.8,-0.6 1.5,-0.9 2,-0.8 0.9,0.3 2.8,5.1 1.5,12 z" /><path
               inkscape:connector-curvature="0"
               id="svg_9"
               d="m 142.8,58.453 v 0 0 c 0,-0.4 0,-0.8 -0.4,-1.2 -0.4,-0.3 -0.9,-0.2 -1.3,-0.1 -1.8,0.4 -2.9,1.6 -3.6,4.2 -0.5,2.1 -0.8,5.4 -1.1,9.3 l -0.3,3.5 c -0.9,9.1 -2.9,9.9 -3.3,10 -0.6,0.1 -1.4,-0.8 -2,-2.4 -2,-5 -1.2,-17.6 0.1,-24.3 0.1,-0.4 0.1,-0.9 -0.2,-1.3 -0.4,-0.4 -0.8,-0.3 -1.3,-0.2 v 0 c -1.5,0.2 -2.7,1.7 -3.2,3.8 -2.2,9.6 -2.6,21.9 1,26.9 1.8,2.4 4.7,2.9 7,1.2 1,-0.7 1.8,-1.6 2.5,-2.7 0.1,3.9 0.3,7.5 0.6,10.7 0.2,2 0.3,3.7 0.3,5.2 0,4 -0.6,6.3 -2,7.2 -0.8,0.5 -1.7,0.6 -2.6,0.2 -2.6,-1 -5,-4.9 -6.3,-10.3 -0.2,-1 -0.9,-1.2 -1.1,-1.2 -0.5,-0.1 -1.1,0.3 -1.4,0.9 -0.5,1.1 -1,3.2 -0.3,6.8 0.9,4.3 3.3,7.5 6.2,8.6 1.6,0.6 4.2,0.8 7.3,-1.6 3,-2.3 6.3,-6.9 5.4,-15.9 -0.6,-6.3 -1.8,-22.2 0,-37.3 z" /></g><g
             id="svg_10"><path
               inkscape:connector-curvature="0"
               id="svg_11"
               d="m 279,54.953 c -2.5,0 -4.3,-1.9 -4.3,-4.3 0,-2.4 1.8,-4.4 4.3,-4.4 2.5,0 4.3,1.9 4.3,4.4 0,2.3 -1.8,4.3 -4.3,4.3 z m 0,-8 c -2.1,0 -3.5,1.5 -3.5,3.6 0,2.1 1.4,3.6 3.5,3.6 2.1,0 3.5,-1.5 3.5,-3.6 0,-2.1 -1.3,-3.6 -3.5,-3.6 z m 1,5.8 -0.8,-1.7 h -0.9 v 1.7 h -0.8 v -4.5 h 1.7 c 0.9,0 1.6,0.5 1.6,1.4 0,0.6 -0.3,1.1 -0.8,1.3 l 0.8,1.8 z m -0.8,-3.8 h -0.9 v 1.4 h 0.9 c 0.5,0 0.8,-0.2 0.8,-0.7 0,-0.5 -0.3,-0.7 -0.8,-0.7 z" /></g></g><g
           id="svg_12"><path
             inkscape:connector-curvature="0"
             id="svg_13"
             d="m 67.1,159.853 v -14.2 h 9.1 v 1 h -8 v 5.2 h 7.1 v 1 h -7.1 v 6 h 8 v 1 z" /><path
             inkscape:connector-curvature="0"
             id="svg_14"
             d="m 85.6,158.953 c -0.7,0.8 -1.9,1.2 -3.2,1.2 -1.4,0 -2.5,-0.4 -3.3,-1.3 -0.6,-0.6 -0.8,-1.2 -0.8,-2 h 1 c 0.1,0.6 0.3,1.1 0.7,1.5 0.6,0.6 1.4,0.8 2.4,0.8 1,0 1.9,-0.2 2.4,-0.7 0.4,-0.4 0.5,-0.7 0.5,-1.3 0,-0.9 -0.6,-1.7 -1.8,-1.8 l -1.9,-0.3 c -0.8,-0.1 -1.7,-0.4 -2.3,-1 -0.4,-0.4 -0.6,-0.9 -0.6,-1.6 0,-0.8 0.3,-1.5 0.9,-1.9 0.7,-0.7 1.7,-0.9 2.7,-0.9 1.2,0 2.3,0.4 3,1.2 0.5,0.5 0.7,1.2 0.8,1.8 h -1 c 0,-0.3 -0.2,-0.8 -0.5,-1.2 -0.5,-0.5 -1.2,-0.9 -2.3,-0.9 -0.8,0 -1.4,0.1 -1.8,0.5 -0.5,0.4 -0.8,0.8 -0.8,1.4 0,0.8 0.4,1.5 1.9,1.7 l 1.9,0.3 c 1.9,0.3 2.8,1.5 2.8,2.8 0,0.6 -0.3,1.2 -0.7,1.7 z" /><path
             inkscape:connector-curvature="0"
             id="svg_15"
             d="m 92.3,160.053 c -1.9,0 -2.6,-1.2 -2.6,-2.9 v -6.3 h -2 v -0.9 h 2 v -2.8 l 1,-0.2 v 3 h 3.1 v 0.9 h -3.1 v 6.3 c 0,1.2 0.3,2 1.7,2 0.5,0 1,-0.1 1.6,-0.2 v 0.9 c -0.6,0 -1.2,0.2 -1.7,0.2 z" /><path
             inkscape:connector-curvature="0"
             id="svg_16"
             d="m 96.3,158.253 c 0.5,0 0.9,0.4 0.9,0.9 0,0.5 -0.4,0.9 -0.9,0.9 -0.5,0 -0.9,-0.4 -0.9,-0.9 0,-0.5 0.4,-0.9 0.9,-0.9 z" /><path
             inkscape:connector-curvature="0"
             id="svg_17"
             d="m 102.7,159.853 v -1.1 l 5.6,-6.9 c 0.6,-0.7 1.1,-1.8 1.1,-2.7 0,-1.6 -1.2,-2.5 -2.7,-2.5 -1.9,0 -2.9,1.3 -2.9,3.2 h -1.1 c 0,-2.4 1.5,-4.1 4,-4.1 2.2,0 3.7,1.3 3.7,3.5 0,1.2 -0.6,2.4 -1.4,3.3 l -5.2,6.5 h 6.9 v 1 h -8 z" /><path
             inkscape:connector-curvature="0"
             id="svg_18"
             d="m 119.2,159.053 c -0.6,0.6 -1.5,1.1 -2.8,1.1 -1.3,0 -2.2,-0.5 -2.8,-1.1 -1.4,-1.4 -1.6,-3.9 -1.6,-6.1 0,-2.2 0.2,-4.7 1.6,-6.1 0.6,-0.6 1.5,-1.1 2.8,-1.1 1.3,0 2.2,0.5 2.8,1.1 1.4,1.4 1.6,3.9 1.6,6.1 0.1,2.1 -0.1,4.7 -1.6,6.1 z m -0.7,-11.6 c -0.5,-0.5 -1.2,-0.8 -2.1,-0.8 -1,0 -1.6,0.3 -2.1,0.8 -1.3,1.2 -1.3,3.7 -1.3,5.5 0,1.8 0,4.2 1.3,5.5 0.5,0.5 1.2,0.8 2.1,0.8 1,0 1.6,-0.3 2.1,-0.8 1.3,-1.2 1.3,-3.7 1.3,-5.5 0,-1.8 0,-4.3 -1.3,-5.5 z" /><path
             inkscape:connector-curvature="0"
             id="svg_19"
             d="m 129.7,159.053 c -0.6,0.6 -1.5,1.1 -2.8,1.1 -1.3,0 -2.2,-0.5 -2.8,-1.1 -1.4,-1.4 -1.6,-3.9 -1.6,-6.1 0,-2.2 0.2,-4.7 1.6,-6.1 0.6,-0.6 1.5,-1.1 2.8,-1.1 1.3,0 2.2,0.5 2.8,1.1 1.4,1.4 1.6,3.9 1.6,6.1 0,2.1 -0.2,4.7 -1.6,6.1 z m -0.7,-11.6 c -0.5,-0.5 -1.2,-0.8 -2.1,-0.8 -1,0 -1.6,0.3 -2.1,0.8 -1.3,1.2 -1.3,3.7 -1.3,5.5 0,1.8 0,4.2 1.3,5.5 0.5,0.5 1.2,0.8 2.1,0.8 1,0 1.6,-0.3 2.1,-0.8 1.3,-1.2 1.3,-3.7 1.3,-5.5 0,-1.8 -0.1,-4.3 -1.3,-5.5 z" /><path
             inkscape:connector-curvature="0"
             id="svg_20"
             d="m 137.3,160.153 c -2.4,0 -4.4,-1.4 -4.4,-3.9 0,-1.6 1,-3.1 2.5,-3.6 -1.3,-0.5 -2.1,-1.8 -2.1,-3.2 0,-2.4 1.8,-3.7 4.1,-3.7 2.3,0 4,1.3 4,3.7 0,1.4 -0.8,2.7 -2.1,3.2 1.5,0.5 2.5,2 2.5,3.6 -0.1,2.5 -2.2,3.9 -4.5,3.9 z m 0,-7.1 c -1.9,0 -3.3,1.1 -3.3,3.1 0,2 1.5,3.1 3.4,3.1 1.9,0 3.3,-1.1 3.3,-3.1 -0.1,-2 -1.5,-3.1 -3.4,-3.1 z m 0,-6.5 c -1.7,0 -3,1 -3,2.8 0,1.8 1.3,2.8 3,2.8 1.7,0 3,-1 3,-2.8 0,-1.8 -1.3,-2.8 -3,-2.8 z" /><path
             inkscape:connector-curvature="0"
             id="svg_21"
             d="m 158.5,158.753 c -1,0.9 -2.4,1.4 -4,1.4 -1.6,0 -3,-0.5 -4,-1.5 -0.7,-0.7 -1.2,-1.7 -1.3,-2.8 h 1.1 c 0.1,0.8 0.5,1.6 1,2.2 0.8,0.8 1.9,1.2 3.1,1.2 1.2,0 2.4,-0.3 3.2,-1.1 0.5,-0.5 0.8,-1.1 0.8,-2 0,-1.4 -1.1,-2.5 -2.8,-2.8 l -2.6,-0.3 c -2,-0.3 -3.5,-1.4 -3.5,-3.6 0,-1.2 0.5,-2 1.2,-2.7 0.9,-0.8 2.2,-1.2 3.5,-1.2 1.5,0 3,0.6 3.8,1.6 0.6,0.7 1,1.4 1.1,2.5 H 158 c -0.1,-0.7 -0.3,-1.3 -0.8,-1.8 -0.6,-0.8 -1.8,-1.2 -3.1,-1.2 -1,0 -2,0.3 -2.7,0.9 -0.5,0.5 -1,1.1 -1,2.1 0,1.7 1.2,2.3 2.5,2.5 l 2.7,0.3 c 2.2,0.3 3.7,1.9 3.7,3.9 0.3,0.9 -0.1,1.7 -0.8,2.4 z" /><path
             inkscape:connector-curvature="0"
             id="svg_22"
             d="M 172.2,159.853 H 171 l -2.9,-8.6 -2.9,8.6 H 164 l -2.5,-10 h 1 l 2.2,8.8 3,-8.7 h 1.1 l 2.9,8.6 2.2,-8.7 h 0.9 z" /><path
             inkscape:connector-curvature="0"
             id="svg_23"
             d="m 185,155.153 h -7.6 c 0,1.2 0.4,2.2 1,3 0.6,0.7 1.3,1.1 2.4,1.1 0.9,0 1.6,-0.3 2.2,-0.9 0.4,-0.4 0.6,-0.8 0.8,-1.4 h 1 c -0.1,0.9 -0.6,1.6 -1.1,2.1 -0.7,0.7 -1.7,1.2 -2.9,1.2 -1.4,0 -2.5,-0.6 -3.2,-1.4 -0.8,-1 -1.3,-2.3 -1.3,-3.8 0,-1.3 0.2,-2.5 1,-3.6 0.8,-1.1 2,-1.7 3.4,-1.7 2.7,0 4.3,2.3 4.3,4.8 0.1,0.1 0,0.3 0,0.6 z m -4.2,-4.6 c -2.1,0 -3.4,1.7 -3.4,3.6 h 6.6 c 0,-1.9 -1.2,-3.6 -3.2,-3.6 z" /><path
             inkscape:connector-curvature="0"
             id="svg_24"
             d="m 194.4,159.853 -0.1,-1.8 c -0.5,1.2 -2,2 -3.3,2 -1.1,0 -2,-0.4 -2.7,-0.9 -1.1,-1 -1.6,-2.6 -1.6,-4.3 0,-1.6 0.5,-3.2 1.6,-4.2 0.7,-0.6 1.6,-1 2.7,-1 1.4,0 2.8,0.8 3.3,1.9 v -6.1 h 1 v 14.4 z m -1.4,-8.5 c -0.5,-0.5 -1.2,-0.8 -2.1,-0.8 -0.9,0 -1.6,0.3 -2.1,0.9 -0.8,0.8 -1.1,2.1 -1.1,3.4 0,1.4 0.4,2.8 1.3,3.6 0.5,0.4 1.1,0.7 2,0.7 0.9,0 1.5,-0.3 2,-0.8 0.9,-0.9 1.3,-2.1 1.3,-3.5 0,-1.5 -0.4,-2.6 -1.3,-3.5 z" /><path
             inkscape:connector-curvature="0"
             id="svg_25"
             d="m 206.1,155.153 h -7.6 c 0,1.2 0.4,2.2 1,3 0.6,0.7 1.3,1.1 2.4,1.1 0.9,0 1.6,-0.3 2.2,-0.9 0.4,-0.4 0.6,-0.8 0.8,-1.4 h 1 c -0.1,0.9 -0.6,1.6 -1.1,2.1 -0.7,0.7 -1.7,1.2 -2.9,1.2 -1.4,0 -2.5,-0.6 -3.2,-1.4 -0.8,-1 -1.3,-2.3 -1.3,-3.8 0,-1.3 0.2,-2.5 1,-3.6 0.8,-1.1 2,-1.7 3.4,-1.7 2.7,0 4.3,2.3 4.3,4.8 0,0.1 0,0.3 0,0.6 z m -4.3,-4.6 c -2.1,0 -3.4,1.7 -3.4,3.6 h 6.6 c 0,-1.9 -1.1,-3.6 -3.2,-3.6 z" /><path
             inkscape:connector-curvature="0"
             id="svg_26"
             d="m 215.1,159.853 v -6.5 c 0,-1.7 -0.8,-2.7 -2.6,-2.7 -2.5,0 -3.3,2.1 -3.3,4.3 v 5 h -1 v -10 h 0.9 l 0.1,1.8 c 0.6,-1.3 2,-2.1 3.4,-2.1 2.3,0 3.5,1.4 3.5,3.7 v 6.6 h -1 z" /></g></g></g></g></svg>