<?xml version="1.0" encoding="UTF-8" standalone="no"?>
<svg
   xmlns:dc="http://purl.org/dc/elements/1.1/"
   xmlns:cc="http://creativecommons.org/ns#"
   xmlns:rdf="http://www.w3.org/1999/02/22-rdf-syntax-ns#"
   xmlns:svg="http://www.w3.org/2000/svg"
   xmlns="http://www.w3.org/2000/svg"
   xmlns:sodipodi="http://sodipodi.sourceforge.net/DTD/sodipodi-0.dtd"
   xmlns:inkscape="http://www.inkscape.org/namespaces/inkscape"
   viewBox="0 0 40.446 40.455172"
   width="210"
   height="210"
   version="1.1"
   id="svg8"
   sodipodi:docname="herschel2.svg"
   inkscape:version="0.92.2 5c3e80d, 2017-08-06">
  <metadata
     id="metadata14">
    <rdf:RDF>
      <cc:Work
         rdf:about="">
        <dc:format>image/svg+xml</dc:format>
        <dc:type
           rdf:resource="http://purl.org/dc/dcmitype/StillImage" />
        <dc:title></dc:title>
      </cc:Work>
    </rdf:RDF>
  </metadata>
  <defs
     id="defs12" />
  <sodipodi:namedview
     pagecolor="#ffffff"
     bordercolor="#666666"
     borderopacity="1"
     objecttolerance="10"
     gridtolerance="10"
     guidetolerance="10"
     inkscape:pageopacity="0"
     inkscape:pageshadow="2"
     inkscape:window-width="958"
     inkscape:window-height="598"
     id="namedview10"
     showgrid="false"
     inkscape:zoom="1.31"
     inkscape:cx="95.423729"
     inkscape:cy="83.343087"
     inkscape:window-x="483"
     inkscape:window-y="4"
     inkscape:window-maximized="0"
     inkscape:current-layer="svg8" />
  <path
     d="m 4.0590362,20.878593 c 0.615814,-0.016 1.343593,-0.27192 2.063375,-0.24793 0.119963,-0.29591 0.143956,-0.61581 0.231929,-0.91172 0.103969,-0.36789 0.303908,-0.70379 0.415874,-1.07967 0.03999,-0.14396 0.06398,-0.28792 0.111966,-0.43187 0.03199,-0.10397 0.08797,-0.19994 0.127962,-0.30391 0.02399,-0.056 0.03999,-0.11197 0.05598,-0.16795 0.016,-0.064 0.008,-0.11996 0.03199,-0.17594 0.02399,-0.072 0.05598,-0.13596 0.07998,-0.20794 0.03999,-0.13596 0.07198,-0.27992 0.103968,-0.42387 0.04798,-0.22394 0.151954,-0.42387 0.223932,-0.63981 0.07198,-0.22393 0.111966,-0.43987 0.159952,-0.6718 0.03999,-0.21593 0.159951,-0.39188 0.231929,-0.59182 0.09597,-0.25592 0.143957,-0.51984 0.247925,-0.78376 0.119964,-0.27991 0.175947,-0.57582 0.26392,-0.85574 0.151954,-0.47186 0.391881,-0.9837 0.591821,-1.44756 0.135959,-0.31191 0.287913,-0.63181 0.375886,-0.9757 0.02399,-0.11197 0.04799,-0.23193 0.07998,-0.3439 0.03199,-0.096 0.127961,-0.36789 0.23193,-0.39188 0.191941,-0.048 0.4798538,0.35989 0.5838228,0.49585 0.06398,0.08 0.119963,0.17594 0.167949,0.27192 0.03999,0.088 0.09597,0.15995 0.111966,0.25592 0.016,0.096 0.008,0.19194 -0.008,0.28791 -0.03199,0.19994 -0.09597,0.39988 -0.167949,0.59182 -0.03999,0.096 -0.07998,0.19994 -0.119964,0.29591 -0.127961,0.3359 -0.23193,0.63981 -0.3598908,0.96771 -0.183944,0.47186 -0.391881,0.92772 -0.543835,1.42357 -0.103969,0.3279 -0.207937,0.6558 -0.319903,0.9837 -0.135959,0.39188 -0.255922,0.71978 -0.351893,1.15165 -0.06398,0.28791 -0.19994,0.56783 -0.303908,0.84774 -0.103969,0.27992 -0.19994,0.57583 -0.287913,0.86374 -0.143956,0.49585 -0.359891,0.96771 -0.463859,1.47955 -0.02399,0.096 -0.03999,0.19994 -0.07198,0.29591 -0.03199,0.088 -0.06398,0.15995 -0.03999,0.25592 0.29591,0.08 0.655801,0.072 0.975704,0.072 0.09597,-0.22393 0.199939,-0.44786 0.287913,-0.67979 0.159951,-0.3359 0.351893,-0.75177 0.679794,-1.07168 0.06398,-0.056 0.135958,-0.088 0.183944,-0.15195 0.231929,-0.27992 0.5118448,-0.53584 0.9117228,-0.74377 0.07198,-0.04 0.287912,-0.13596 0.351893,-0.13596 0.247925,-0.008 0.359891,0.3119 0.55983,0.41587 0.127962,0.064 0.247925,0.13596 0.367889,0.21593 0.143956,0.088 0.255922,0.16795 0.351893,0.31191 0.08797,0.13596 0.151954,0.27992 0.167949,0.44786 0.016,0.17595 -0.07198,0.38389 -0.103968,0.63181 -0.04799,0.3519 -0.06398,0.63981 -0.215935,0.85574 -0.135959,0.11197 -0.287912,0.20794 -0.439866,0.30391 l -0.215935,0.14396 c -0.111966,0.072 -0.191942,0.11196 -0.311906,0.14395 -0.119963,0.032 -0.239927,0.072 -0.35989,0.11197 -0.239927,0.088 -0.479854,0.18394 -0.7277788,0.23993 -0.03999,0.008 -0.423872,0.056 -0.423872,0.056 -0.119963,0.51984 0.03199,1.21563 0.287913,1.57552 0.1759468,0.088 0.4638598,-0.056 0.6558008,-0.15995 0.239928,-0.13596 0.479854,-0.34389 0.687791,-0.53584 0.46386,-0.43187 0.879734,-0.93571 1.199637,-1.47955 0.07997,-0.14395 0.151954,-0.27991 0.247924,-0.40787 0.03199,-0.04 0.07198,-0.088 0.08797,-0.13596 0.07998,-0.22393 0.183944,-0.42387 0.271917,-0.63981 0.09597,-0.20794 0.215935,-0.46386 0.247925,-0.69579 0.04799,-0.3279 -0.09597,-0.6638 -0.008,-0.95171 0.03199,-0.11197 0.135958,-0.20794 0.199939,-0.30391 0.03199,-0.056 0.06398,-0.11196 0.07198,-0.17594 0.016,-0.16795 0.215935,-0.19195 0.343896,-0.11197 0.135959,0.088 0.199939,0.27192 0.303908,0.39188 0.09597,0.11197 0.26392,0.22393 0.29591,0.28791 0.07198,0.15996 -0.02399,0.3519 0.09597,0.45587 0.287913,-0.056 0.487852,-0.21594 0.735777,-0.19195 0.151954,0.016 0.271917,0.11197 0.399879,0.17595 0.127961,0.072 0.3279,0.064 0.423871,0.17595 0.07198,0.08 0.111966,0.18394 0.151954,0.27991 0.08797,0.19994 0.143956,0.42387 0.127961,0.64781 -0.016,0.21593 -0.175946,0.34389 -0.255922,0.49585 -0.607816,0.54383 -1.119661,1.17564 -1.359588,2.02338 0.008,0.08 -0.08797,0.23193 -0.03999,0.30391 0.04799,0.072 0.255923,-0.14396 0.29591,-0.17595 0.04799,-0.032 0.08797,-0.072 0.127962,-0.11196 0.135958,-0.11997 0.271917,-0.24793 0.407876,-0.36789 0.271918,-0.23993 0.52784,-0.49585 0.743775,-0.77577 -0.175947,-0.42387 0.08797,-0.75977 0.455861,-0.51184 0.239928,-0.23993 0.383884,-0.54384 0.591821,-0.82375 0.07998,-0.10397 0.175947,-0.19994 0.239927,-0.31191 0.07198,-0.11996 0.119964,-0.24792 0.183944,-0.37588 0.07198,-0.15196 0.191942,-0.25592 0.271918,-0.39988 0.07998,-0.13596 0.151954,-0.27192 0.223932,-0.40788 0.03999,-0.072 0.07198,-0.14395 0.111966,-0.21593 0.03199,-0.056 0.06398,-0.11197 0.07198,-0.18395 0.008,-0.072 -0.016,-0.15195 -0.016,-0.23193 -0.008,-0.08 -0.008,-0.15995 -0.016,-0.23992 0,-0.056 -0.02399,-0.18395 0,-0.23193 0.02399,-0.056 0.111966,-0.064 0.175947,-0.08 0.008,0 0.02399,-0.088 0.02399,-0.096 0.016,-0.032 0.03199,-0.056 0.05598,-0.08 0.05598,-0.048 0.143957,-0.056 0.215935,-0.056 0.127961,0 0.271918,0.048 0.335898,0.15995 0.03999,0.072 0.06398,0.16795 0.07198,0.24793 0.167949,0.15195 0.399879,0.41587 0.399879,0.71178 0,0.11197 -0.08797,0.21594 -0.103968,0.3279 -0.06398,0.40788 0.03199,0.94372 0.135958,1.40758 0.09597,0.40787 0.159952,0.9837 0.191942,1.47155 0.127961,-0.064 0.183944,-0.19994 0.255923,-0.31191 0.151954,-0.22393 0.303907,-0.45586 0.431869,-0.71178 0.151954,-0.28791 0.239927,-0.53584 0.423871,-0.80775 0.08797,-0.13596 0.191942,-0.26392 0.279915,-0.39189 0.183945,-0.27191 0.351894,-0.55983 0.559831,-0.77576 0.143956,-0.14396 0.303907,-0.27992 0.463859,-0.40788 0.07998,-0.064 0.159951,-0.13596 0.239927,-0.19994 0.07198,-0.064 0.127961,-0.15195 0.215935,-0.19994 0.07198,-0.04 0.159951,-0.048 0.231929,-0.072 0.08797,-0.024 0.175947,-0.048 0.271918,-0.056 0.167949,-0.024 0.343896,-0.04 0.49585,0.04 0.143956,0.08 0.3279,0.16795 0.415874,0.31191 0.08797,0.15195 0.159951,0.28791 0.3279,0.35189 0.04799,0.016 0.09597,0.024 0.143957,0.016 0.07998,-0.008 0.159951,-0.032 0.231929,0.024 0.06398,0.056 0.09597,0.14395 0.103969,0.22393 0.02399,0.17595 -0.03199,0.3439 -0.08797,0.50385 -0.02399,0.072 -0.05598,0.13596 -0.07998,0.20793 -0.02399,0.064 -0.07998,0.10397 -0.119964,0.15996 -0.04799,0.072 -0.09597,0.14395 -0.135959,0.22393 -0.05598,0.096 -0.08797,0.20793 -0.135959,0.3119 -0.03999,0.10397 -0.111966,0.18395 -0.159951,0.28792 -0.08797,0.17594 -0.143956,0.3119 -0.431869,0.20793 -0.08797,-0.032 -0.167949,-0.096 -0.239927,-0.15195 -0.06398,-0.048 -0.135959,-0.088 -0.183945,-0.15995 -0.05598,-0.08 -0.03999,-0.16795 -0.06398,-0.26392 -0.02399,-0.096 -0.07198,-0.16795 -0.07198,-0.22394 -0.008,-0.096 0.04799,-0.16794 0.08797,-0.24792 0.02399,-0.048 0.05598,-0.14396 0,-0.18394 -0.05598,-0.048 -0.167949,-0.008 -0.223932,0.024 -0.159952,0.08 -0.26392,0.26392 -0.383884,0.39188 -0.167949,0.18394 -0.359891,0.37589 -0.495849,0.58382 -0.06398,0.096 -0.119964,0.23193 -0.19994,0.3519 -0.07198,0.11196 -0.167949,0.22393 -0.207937,0.35989 -0.119963,0.41587 -0.191942,0.72778 0.143957,1.04768 0.04799,0.048 0.09597,0.048 0.159951,0.072 0.04799,0.016 0.08797,0.048 0.127961,0.072 0.111966,0.072 0.239928,0.11196 0.375886,0.096 0.367889,-0.04 0.887731,-0.31991 1.223629,-0.48786 0.151954,-0.072 0.271918,-0.21593 0.407877,-0.3119 0.143956,-0.10397 0.279915,-0.21594 0.383883,-0.35989 0.02399,-0.04 0.06398,-0.10397 0.08797,-0.15995 0.119963,-0.26392 0.223932,-0.51985 0.3279,-0.78377 0.06398,-0.17594 0.143957,-0.34389 0.207937,-0.51184 0.03199,-0.088 0.06398,-0.17595 0.08797,-0.27192 0.04798,-0.17594 0.191941,-0.30391 0.26392,-0.46386 0.09597,-0.19994 0.183944,-0.40787 0.279915,-0.61581 l 0.167949,-0.35989 c 0.103968,-0.21594 0.175946,-0.44787 0.26392,-0.6798 0.03999,-0.11196 0.08797,-0.22393 0.143956,-0.3279 0.04799,-0.096 0.103969,-0.18394 0.127961,-0.28791 0.016,-0.10397 0.04799,-0.19194 0.08797,-0.28791 0.04799,-0.096 0.103968,-0.19194 0.135958,-0.29591 0.09597,-0.27192 0.239928,-0.51984 0.351894,-0.78376 0.07198,-0.18395 0.127961,-0.38389 0.223932,-0.55983 0.143956,-0.26392 0.223932,-0.56783 0.367888,-0.83975 0.09597,-0.17595 0.167949,-0.3279 0.247925,-0.54384 0.06398,-0.17594 0.207937,-0.3119 0.287913,-0.47985 0.103968,-0.20794 0.151954,-0.44786 0.255922,-0.6638 0.09597,-0.19994 0.207937,-0.39188 0.287913,-0.59982 0.07998,-0.19994 0.135959,-0.39188 0.23193,-0.58382 0.06398,-0.11996 0.175946,-0.45586 0.287912,-0.49585 0.311906,-0.10397 0.575826,0.39188 0.711785,0.59982 0.05598,0.088 0.111966,0.19194 0.127961,0.28791 0.03199,0.16795 -0.02399,0.39188 -0.06398,0.57583 -0.103968,0.54383 -0.343896,0.95171 -0.535837,1.39158 -0.479855,0.84774 -0.959709,1.70348 -1.455559,2.53523 -0.07998,0.12796 -0.167949,0.26392 -0.239927,0.39188 -0.05598,0.10397 -0.07198,0.22393 -0.111966,0.3359 -0.03999,0.11196 -0.111966,0.21593 -0.167949,0.3199 -0.04799,0.096 -0.08797,0.18394 -0.111967,0.28791 -0.02399,0.088 -0.03999,0.17595 -0.07998,0.25592 -0.04799,0.08 -0.08797,0.16795 -0.127961,0.25593 0.159951,-0.056 0.303907,-0.13596 0.447864,-0.22394 0.07198,-0.04 0.135959,-0.088 0.207937,-0.13595 0.119963,-0.08 0.29591,-0.11997 0.431869,-0.16795 0.151954,-0.064 0.303908,-0.08 0.463859,-0.04 0.191942,0.048 0.359891,0.15995 0.511845,0.27991 0.111966,0.08 0.223932,0.15996 0.319903,0.26392 0.07998,0.096 0.191942,0.23193 0.223932,0.3519 0.07998,0.27191 -0.07198,0.47985 -0.111966,0.71178 -0.02399,0.11996 0,0.23993 -0.02399,0.35989 -0.02399,0.096 -0.06398,0.19194 -0.111966,0.28791 -0.09597,0.18395 -0.215934,0.3599 -0.311905,0.55184 -0.04799,0.10397 -0.08797,0.21593 -0.135959,0.3199 -0.06398,0.12796 -0.167949,0.22393 -0.223932,0.35189 -0.05598,0.12797 -0.09597,0.25593 -0.151954,0.38389 -0.06398,0.14395 -0.127961,0.27991 -0.183944,0.42387 -0.05598,0.14396 -0.191942,0.39988 0.008,0.47186 0.127962,0.04 0.423872,-0.12797 0.575826,-0.25593 0.119963,-0.096 0.223932,-0.20793 0.343896,-0.3039 0.127961,-0.096 0.263919,-0.17595 0.375886,-0.29591 0.127961,-0.13596 0.255922,-0.27192 0.367888,-0.41588 0.06398,-0.24792 0.03999,-0.58382 0.119964,-0.84774 0.07198,-0.22393 0.207937,-0.47986 0.3279,-0.73578 0.295911,-0.62381 0.663799,-1.04768 1.207634,-1.48755 0.111966,-0.088 0.207937,-0.20793 0.29591,-0.24792 0.295911,-0.12796 0.711785,0 0.903726,0.17594 0.127962,0.11197 0.287913,0.23993 0.439867,0.3599 0.191942,0.15995 0.471857,0.3119 0.535838,0.57582 0.03199,0.13596 0,0.27192 -0.02399,0.40788 -0.03199,0.15995 -0.06398,0.3199 -0.103969,0.47185 -0.03999,0.15196 -0.103968,0.3359 -0.199939,0.46386 -0.04798,0.064 -0.151954,0.14396 -0.23193,0.22394 -0.143956,0.14395 -0.303907,0.26392 -0.455861,0.39987 -0.191942,0.16795 -0.391882,0.3279 -0.607816,0.47186 -0.135959,0.088 -0.319903,0.27992 -0.55983,0.23993 -0.191942,-0.032 -0.327901,-0.23993 -0.49585,-0.3199 -0.111966,0.38388 0.111966,0.75177 0.319903,1.06367 0.05598,0.08 0.119964,0.11197 0.207937,0.13596 0.223932,0.072 0.447864,-0.072 0.623811,-0.19194 0.279915,-0.18394 0.447864,-0.39988 0.695789,-0.59982 0.135959,-0.11196 0.287913,-0.19994 0.391881,-0.30391 0.07998,-0.08 0.151954,-0.20793 0.223932,-0.3039 0.127961,-0.18395 0.287913,-0.39988 0.463859,-0.55983 0.08797,-0.088 0.207937,-0.14396 0.295911,-0.23193 0.07198,-0.072 0.159951,-0.19994 0.271917,-0.3279 0.239928,-0.27992 0.327901,-0.51185 0.375886,-0.91973 0.03199,-0.26392 0.04799,-0.53583 0.08797,-0.80775 0.03199,-0.22393 0.05598,-0.47186 0.111966,-0.72778 0.03199,-0.15195 0.05598,-0.27992 0.08797,-0.47985 0.111966,-0.71979 0.439867,-1.42357 0.647804,-2.10337 0.05598,-0.16795 0.07198,-0.35189 0.127961,-0.52784 0.05598,-0.16795 0.159951,-0.3119 0.207937,-0.47985 0.03999,-0.14396 0.06398,-0.29591 0.111966,-0.43187 0.05598,-0.14396 0.151954,-0.26392 0.23193,-0.39988 0.07198,-0.12796 0.127961,-0.27192 0.191941,-0.39988 0.255923,-0.53584 0.511845,-1.09567 0.79176,-1.6315 0.143957,-0.27192 0.319903,-0.52784 0.439867,-0.7757704 0.09597,-0.1919404 0.119964,-0.5038504 0.367889,-0.5358404 0.207936,-0.032 0.575825,0.11997 0.703786,0.21594 0.215935,0.1679504 0.07198,0.6957908 0.008,0.9677108 -0.05598,0.22393 -0.09597,0.44786 -0.111966,0.67979 -0.008,0.096 -0.008,0.19194 -0.03999,0.27991 -0.07198,0.23993 -0.135959,0.46386 -0.175947,0.71179 -0.03999,0.26392 -0.07198,0.52784 -0.119963,0.79176 -0.02399,0.14395 -0.103969,0.27192 -0.119964,0.42387 -0.016,0.16795 -0.016,0.3439 -0.08797,0.50385 -0.09597,0.21593 -0.175947,0.42387 -0.23193,0.6478 -0.05598,0.22393 -0.119964,0.45586 -0.239927,0.6558 -0.103969,0.16795 -0.159952,0.3519 -0.223933,0.54384 -0.07198,0.19994 -0.175946,0.39188 -0.255922,0.59182 -0.135959,0.29591 -0.26392,0.59982 -0.415874,0.88773 -0.26392,0.50385 -0.575825,0.9917 -0.871736,1.48755 -0.06398,0.096 -0.103968,0.21593 -0.151953,0.29591 -0.07198,0.11196 -0.175947,0.18394 -0.207937,0.28791 -0.06398,0.24793 -0.03199,0.6638 0.016,1.01569 0.03199,0.23993 0.03999,0.47986 0.07198,0.71978 0.01599,0.11197 0.03199,0.22394 0.05598,0.32791 0.016,0.064 0.03199,0.20793 0.111966,0.23992 0.111966,0.04 0.287913,0.024 0.407876,0.016 0.135959,-0.008 0.271918,-0.04 0.391881,-0.11197 0.09597,-0.064 0.19994,-0.11196 0.303908,-0.16795 0.09597,-0.048 0.183945,-0.12796 0.279916,-0.16795 0.239927,-0.088 0.431869,-0.28791 0.607815,-0.47185 0.127961,-0.12796 0.279915,-0.44787 0.471857,-0.47986 0.247925,-0.04 0.351894,0.24793 0.26392,0.47986 -0.06398,0.16795 -0.175946,0.3199 -0.271917,0.47985 -0.119964,0.19194 -0.223933,0.36789 -0.391882,0.52784 -0.183944,0.16795 -0.383883,0.3199 -0.583823,0.47186 -0.04799,0.04 -0.07998,0.096 -0.135958,0.12796 -0.05598,0.04 -0.119964,0.056 -0.175947,0.10397 -0.111966,0.088 -0.239927,0.14395 -0.359891,0.21593 -0.127961,0.072 -0.247925,0.15196 -0.399879,0.18395 -0.199939,0.04 -0.399878,0.04 -0.599818,0.04 -0.135959,0 -0.279915,0.032 -0.415874,-0.032 -0.127961,-0.064 -0.247925,-0.15195 -0.383883,-0.21593 -0.191942,-0.088 -0.279916,-0.27992 -0.327901,-0.47186 -0.06398,-0.23992 -0.103968,-0.47985 -0.119964,-0.72778 -0.008,-0.13596 -0.01599,-0.27991 -0.01599,-0.41587 -0.695789,0.49585 -1.495546,1.46356 -2.271311,1.95941 -0.167949,0.10396 -0.575826,0.14395 -0.815753,0.08 -0.191942,-0.048 -0.343896,-0.19994 -0.535837,-0.27192 -0.143957,-0.056 -0.26392,-0.11196 -0.367889,-0.23193 -0.127961,-0.15195 -0.223932,-0.3199 -0.343896,-0.47185 -0.06398,-0.088 -0.135958,-0.16795 -0.223932,-0.22394 -0.02399,-0.016 -0.167949,0.096 -0.191942,0.10397 -0.08797,0.048 -0.135958,0.10397 -0.207937,0.17595 -0.04799,0.048 -0.103968,0.096 -0.151953,0.14396 -0.111967,0.096 -0.23193,0.18394 -0.359891,0.25592 -0.271918,0.15195 -0.583823,0.27991 -0.895729,0.3119 -0.09597,0.008 -0.183944,0.008 -0.279915,0 -0.199939,-0.024 -0.351893,-0.08 -0.519842,-0.18394 -0.143957,-0.08 -0.311906,-0.15195 -0.399879,-0.29591 -0.04799,-0.088 -0.07998,-0.19994 -0.08797,-0.30391 -0.008,-0.13596 0.06398,-0.3359 0.103968,-0.51184 0.03199,-0.16795 0.07198,-0.3519 0.119964,-0.49585 0.09597,-0.27192 0.255922,-0.54384 0.351893,-0.82375 0.07198,-0.19195 0.167949,-0.37589 0.247925,-0.56783 0.07198,-0.17595 0.07998,-0.35989 0.111966,-0.54384 0.016,-0.14395 0.05598,-0.33589 -0.05598,-0.44786 -0.215935,-0.19994 -0.591821,-0.048 -0.79176,0.08 -0.111966,0.064 -0.215935,0.13595 -0.327901,0.19993 -0.07998,0.048 -0.183944,0.088 -0.247925,0.16795 -0.04799,0.056 -0.08797,0.12796 -0.143956,0.18395 -0.07198,0.072 -0.151954,0.13596 -0.215934,0.21593 -0.07198,0.08 -0.08797,0.15995 -0.119964,0.25592 -0.02399,0.08 -0.05598,0.15196 -0.08797,0.22394 -0.05598,0.14395 -0.127962,0.28791 -0.183945,0.43187 -0.07198,0.18394 -0.175946,0.39188 -0.255922,0.6398 -0.119964,0.36789 -0.279915,0.79176 -0.367889,1.20764 -0.03999,0.20793 -0.03199,0.43187 -0.103968,0.6318 -0.02399,0.064 -0.135959,0.22394 -0.207937,0.23993 -0.07998,0.016 -0.247925,-0.088 -0.367888,-0.12796 -0.247925,-0.096 -0.46386,-0.11996 -0.52784,-0.43187 -0.19994,0.064 -0.335899,0.16795 -0.511845,0.26392 -0.06398,0.04 -0.135959,0.10397 -0.207937,0.14396 -0.07998,0.04 -0.167949,0.056 -0.255923,0.072 -0.03999,0.008 -0.08797,0.016 -0.127961,0.032 -0.08797,0.032 -0.143956,0.056 -0.239927,0.056 H 22.71736 c -0.199939,-0.008 -0.399879,-0.032 -0.599818,-0.056 -0.111966,-0.016 -0.223932,0 -0.335898,-0.048 -0.09597,-0.04 -0.175947,-0.11197 -0.255923,-0.17595 -0.175946,-0.13595 -0.335898,-0.3119 -0.463859,-0.49585 -0.127961,-0.18394 -0.207937,-0.40787 -0.271918,-0.69578 -0.151954,0.096 -0.271917,0.26392 -0.375886,0.42387 -0.103968,0.15195 -0.191942,0.3119 -0.303908,0.46386 -0.215934,0.29591 -0.439866,0.6398 -0.703786,0.85574 -0.215935,0.17594 -0.711784,0.3279 -1.095668,0.27191 -0.727779,-0.11196 -1.167646,-0.67979 -1.543532,-1.22362 -0.26392,0.23992 -0.575826,0.56782 -0.887731,0.83974 -0.215934,0.18395 -0.303908,0.28791 -0.575825,0.40788 -0.175947,0.08 -0.375886,0.096 -0.567828,0.088 -0.103969,0 -0.207937,-0.016 -0.303908,-0.032 -0.08797,-0.016 -0.175947,-0.024 -0.247925,-0.08 -0.07198,-0.056 -0.119964,-0.15195 -0.159951,-0.23193 -0.08797,-0.19993 -0.143957,-0.41587 -0.159952,-0.6398 -0.016,-0.12796 -0.016,-0.25592 -0.02399,-0.38388 0,-0.13596 0.02399,-0.29592 0.05598,-0.42388 0.03199,-0.11996 0.09597,-0.3119 0.143957,-0.44786 0.04798,-0.15195 0.143956,-0.35989 0.231929,-0.52784 0.07198,-0.12796 0.279916,-0.40788 0.271918,-0.49585 -0.02399,-0.23193 -0.407876,-0.19994 -0.543835,-0.27992 -0.207937,0.15196 -0.287913,0.41588 -0.439867,0.63181 -0.07198,0.10397 -0.143956,0.20794 -0.199939,0.31991 -0.06398,0.11196 -0.103969,0.23992 -0.167949,0.35189 -0.06398,0.11197 -0.167949,0.20794 -0.23193,0.3199 -0.06398,0.11197 -0.127961,0.23193 -0.199939,0.3359 -0.151954,0.22393 -0.26392,0.47186 -0.399879,0.68779 -0.127961,0.19994 -0.279915,0.42387 -0.471857,0.63181 -0.191942,0.20794 -0.399879,0.44786 -0.663799,0.56783 -0.135959,0.064 -0.287913,0.072 -0.431869,0.088 -0.167948,0.016 -0.335898,0.048 -0.503847,0.08 -0.175946,0.04 -0.3678878,0.08 -0.5518318,0.064 -0.127962,-0.016 -0.271918,-0.088 -0.399879,-0.14396 -0.09597,-0.04 -0.199939,-0.072 -0.29591,-0.13596 -0.103969,-0.072 -0.159952,-0.16795 -0.223933,-0.27191 -0.04798,-0.08 -0.127961,-0.13596 -0.175946,-0.21594 -0.271918,-0.42387 -0.319903,-1.00769 -0.327901,-1.62351 -0.383883,-0.032 -0.783762,-0.064 -1.151651,-0.11996 -0.03199,-0.008 -0.287912,0.87174 -0.311905,0.95171 -0.09597,0.3359 -0.183944,0.6718 -0.255922,1.01569 -0.03199,0.14396 -0.03199,0.28792 -0.07198,0.43187 -0.016,0.064 -0.05598,0.11997 -0.07998,0.18395 -0.19994,0.51984 -0.375886,1.03968 -0.52784,1.57552 -0.02399,0.096 -0.06398,0.18394 -0.111966,0.27192 -0.07198,0.12796 -0.151954,0.072 -0.271918,0.11196 -0.05598,0.016 -0.08797,0.064 -0.151954,0.048 -0.06398,-0.016 -0.08797,-0.08 -0.103968,-0.13596 -0.03199,-0.13596 0.008,-0.27992 0.008,-0.41588 0,-0.20793 -0.05598,-0.42387 -0.04798,-0.6478 0.008,-0.16795 0.03999,-0.3359 0.04798,-0.50385 0.02399,-0.24792 0.07998,-0.48785 0.127961,-0.72778 0.07998,-0.39188 0.07998,-0.77576 0.159951,-1.13565 0.07198,-0.3439 0.159952,-0.71179 0.247925,-1.02369 -0.703787,0.08 -1.447561,0.26392 -2.063374,0.47186 -0.08797,0.056 -0.06398,0.18394 -0.103969,0.3119 -0.03999,0.14396 -0.127961,0.27992 -0.159951,0.44787 -0.07998,0.41587 -0.191942,0.84774 -0.239928,1.2956 -0.03199,0.23993 -0.04798,0.44787 -0.103968,0.6798 -0.119964,0.55983 -0.223932,1.11966 -0.359891,1.67149 -0.016,0.064 -0.016,0.14396 -0.05598,0.19994 -0.04799,0.056 -0.119964,0.056 -0.167949,0.10397 -0.06398,0.064 -0.06398,0.22393 -0.151954,0.26392 -0.06398,0.032 -0.303908,-0.04 -0.359891,-0.096 -0.05598,-0.048 -0.05598,-0.16795 -0.06398,-0.23193 -0.03199,-0.18395 -0.03199,-0.37589 -0.02399,-0.55983 0.008,-0.27992 0.05598,-0.56783 0.103968,-0.83975 0.02399,-0.15195 0.05598,-0.30391 0.07998,-0.46386 0.111966,-0.73577 0.143957,-1.44756 0.279915,-2.13535 -0.183944,0.048 -0.487852,0.18394 -0.7037861,0.13596 -0.143957,-0.032 -0.359891,-0.23993 -0.439867,-0.40788 -0.07198,-0.15195 -0.119964,-0.30391 -0.143956,-0.47185 -0.008,-0.064 -0.05598,-0.18395 -0.03199,-0.24793 0.02399,-0.072 0.07198,-0.056 0.127962,-0.04 0.119963,0.032 0.207937,-0.032 0.3279,-0.072 l 0.4078771,-0.14395 c 0.26392,-0.088 0.527839,-0.16795 0.767767,-0.3199 0.05598,-0.20794 0.07198,-0.43187 0.119963,-0.64781 0.103969,-0.46386 0.207937,-0.90372 0.311906,-1.39957 0.03999,-0.19195 0.04798,-0.39988 0.09597,-0.59182 0.01599,-0.064 0.04798,-0.11197 0.06398,-0.17595 0.01599,-0.064 0,-0.13596 0.01599,-0.19994 0.016,-0.088 0.03999,-0.16795 0.07198,-0.24793 0.05598,-0.16794 0.111966,-0.33589 0.143956,-0.51184 0.07998,-0.44786 0.103969,-0.93572 0.215935,-1.39158 0.103968,-0.41587 0.279915,-0.83175 0.343896,-1.28761 0.02399,-0.18394 0.01599,-0.35989 0.06398,-0.54383 0.02399,-0.096 0.103968,-0.16795 0.127961,-0.26392 0.02399,-0.088 0,-0.19195 0.02399,-0.28792 0.167949,-0.80775 0.463859,-1.58352 0.679794,-2.37528 0.03199,-0.11196 0.05598,-0.21593 0.07998,-0.3279 0.02399,-0.11196 0.02399,-0.22393 0.07998,-0.3279 0.05598,-0.10397 0.103968,-0.21593 0.135958,-0.3359 0.06398,-0.24792 0.09597,-0.4958404 0.151954,-0.7437704 0.03199,-0.1279604 0.07198,-0.2559204 0.135959,-0.3758904 0.05598,-0.096 0.271918,-0.016 0.343896,0.016 0.05598,0.024 0.111966,0.056 0.167949,0.08 0.09597,0.032 0.159951,0.048 0.23193,0.12796 0.05598,0.064 0.111966,0.12796 0.183944,0.1759404 0.135959,0.10397 0.26392,0.23993 0.319903,0.4078804 0.03999,0.11197 0.04799,0.23993 0.03999,0.35989 -0.008,0.11197 -0.09597,0.23193 -0.135959,0.3439 -0.09597,0.3119 -0.159951,0.59981 -0.26392,0.89572 -0.279915,0.82375 -0.567828,1.69549 -0.85574,2.54323 -0.04799,0.13596 -0.111966,0.27992 -0.143957,0.41588 -0.09597,0.37588 -0.111966,0.77576 -0.223932,1.14365 -0.05598,0.17595 -0.127961,0.3359 -0.167949,0.51984 -0.03999,0.18395 -0.103968,0.3519 -0.151954,0.53584 -0.215934,0.88773 -0.375886,1.78346 -0.615813,2.6472 0.008,0.53584 -0.207937,0.91172 -0.271918,1.41557 z m 34.2776078,-8.44544 c -0.255923,0.55983 -0.503847,1.04768 -0.647804,1.71148 -0.03999,0.056 -0.04799,0.15995 -0.08797,0.27192 -0.008,0.26392 -0.711784,1.99139 -0.695789,2.23132 0.159951,-0.23193 0.783762,-2.04738 0.911723,-2.3033 0.008,-0.056 0.02399,-0.048 0.02399,-0.088 0.287913,-0.55184 0.415874,-1.17565 0.543835,-1.82345 z m -27.255737,6.77395 c -0.35989,0.33589 -0.671796,0.73577 -0.959709,1.11166 -0.07198,0.088 -0.1919408,0.19194 -0.1679488,0.3199 0.6637988,-0.18394 1.1676448,-0.71978 1.1836408,-1.43156 z m 6.701968,3.271 c 0.111966,0.088 0.247925,0.16795 0.319903,0.16795 0.08797,-0.008 0.247925,-0.15195 0.311905,-0.21593 0.191942,-0.17595 0.343896,-0.39988 0.359891,-0.63981 0.03199,-0.62381 -0.167949,-1.35159 -0.175946,-1.9594 -0.02399,0 -0.02399,-0.016 -0.04799,-0.008 -0.52784,0.59182 -0.775765,1.41557 -1.255619,2.04738 0.127961,0.12796 0.199939,0.30391 0.311905,0.44786 0.03199,0.032 0.09597,0.096 0.175947,0.15995 z m 14.01975,-2.43126 c 0.223932,-0.088 1.199636,-0.9997 1.135655,-1.59951 -0.407876,-0.096 -1.047682,1.34359 -1.135655,1.59951 z M 18.774574,4.5475406 c 0.016,0.28791 0.103969,0.63981 0.111966,0.9917 0.175947,0.024 0.615814,-0.18395 0.575826,0.096 -0.02399,0.18394 -0.359891,0.11996 -0.575826,0.15995 0.03199,0.36789 0.05598,0.74378 0.127962,1.07168 0.191941,0.016 0.687791,-0.19994 0.735777,0.016 0.05598,0.27192 -0.839746,0.26392 -0.9917,0.15995 -0.143956,-0.79975 -0.151954,-1.82344 -0.207937,-2.66319 0.127961,-0.08 0.423872,-0.08 0.639806,-0.096 0.09597,-0.008 0.247925,-0.032 0.271918,0.08 0.03999,0.22393 -0.479855,0.15195 -0.687792,0.18394 z m 1.967404,-0.016 c -0.119964,-0.15995 -0.423872,-0.048 -0.487852,0.11197 -0.04799,0.10397 -0.04799,0.28791 -0.008,0.39988 0.07198,0.20794 0.295911,0.35989 0.447864,0.59182 0.215935,0.3279 0.455862,0.6718 0.255923,1.13566 -0.159952,0.24792 -0.695789,0.34389 -0.911724,0.016 -0.07998,-0.12796 -0.231929,-0.87173 0.03199,-0.84774 0.231929,0.024 0.008,0.77576 0.367888,0.81575 0.191942,0.024 0.351893,-0.13596 0.335898,-0.38388 -0.04799,-0.59982 -0.759769,-0.87174 -0.767767,-1.49555 0,-0.10397 0.02399,-0.27192 0.09597,-0.38388 0.26392,-0.39188 0.871736,-0.24793 0.895728,0.25592 0,0.064 0.008,0.24792 -0.111966,0.22393 -0.05598,-0.016 -0.07997,-0.13596 -0.08797,-0.17595 -0.016,-0.096 -0.008,-0.18394 -0.05598,-0.26392 z m 1.807452,0.016 c -0.09597,0.11197 -0.335898,0 -0.49585,0.016 -0.008,0.6638 -0.02399,1.3276 -0.07998,1.9834 l -0.02399,0.26392 c -0.01599,0.11997 -0.01599,0.24793 -0.183944,0.22394 -0.135959,-0.096 -0.05598,-0.28792 -0.04799,-0.43187 0.05598,-0.64781 0.03999,-1.40758 0.09597,-2.05538 0,0.032 -0.383884,-0.016 -0.407876,-0.024 -0.03999,-0.008 -0.151954,-0.032 -0.143957,-0.096 0.016,-0.072 0.167949,-0.088 0.215935,-0.088 0.167949,-0.024 0.3279,0 0.49585,0.008 0.271917,0.008 0.655801,-0.024 0.575825,0.19994 z"
     id="path2"
     inkscape:connector-curvature="0"
     style="stroke-width:0.07997575" />
  <path
     d="m 24.204928,7.1147606 c 0.04799,0.08 0.09597,0.16795 0.151954,0.2479296 0.05598,0.088 0.09597,0.15195 0.199939,0.19194 0.103969,0.048 0.223932,0.072 0.335899,0.11196 0.239927,0.08 0.487852,0.1519604 0.727779,0.2079404 0.135959,0.032 0.271917,0.056 0.415874,0.072 0.551833,0.072 1.103665,0.064 1.623508,0.1439604 0.503847,0.072 0.991699,0.18394 1.431566,0.3199 0.623811,0.1919404 1.343592,0.4238704 1.815449,0.8317512 0.05598,0.048 0.439867,0.4478604 0.191942,0.5278404 -0.167949,0.056 -0.255922,-0.2239404 -0.335898,-0.3039104 -0.167949,-0.15995 -0.415874,-0.2639204 -0.639806,-0.3838804 -0.23193,-0.11997 -0.471857,-0.19994 -0.735777,-0.2879204 -0.52784,-0.17594 -1.071675,-0.3279 -1.623508,-0.4158704 -0.919721,-0.13596 -1.87943,-0.15196 -2.679188,-0.3838904 -0.343895,-0.096 -0.767767,-0.20793 -0.975704,-0.5358304 -0.03999,-0.056 -0.06398,-0.11997 -0.09597,-0.1839496 -0.02399,-0.056 -0.02399,-0.10397 -0.08797,-0.11996 -0.04799,-0.016 -0.09597,-0.008 -0.143956,-0.024 -0.03999,-0.016 -0.08797,-0.032 -0.127962,-0.056 a 0.65420167,0.65420167 0 0 1 -0.303908,-0.47185 c -0.04799,-0.35989 0.135959,-1.0157 0.191942,-1.38358 0.03999,-0.29591 0.03999,-0.60782 0.223932,-0.75178 0.143957,-0.11196 0.52784,-0.12796 0.687792,-0.032 0.09597,0.056 0.215934,0.30391 0.239927,0.44787 0.03199,0.19194 -0.03999,0.43187 -0.06398,0.68779 -0.03199,0.35989 -0.127962,0.6638 -0.191942,0.9757 -0.03999,0.25593 -0.07998,0.43187 -0.23193,0.56783 z m -0.551833,-1.08767 c -0.05598,0.35189 -0.07198,0.83175 0.239928,0.87973 0.29591,0.048 0.279915,-0.16794 0.335898,-0.41587 0.07998,-0.38388 0.159951,-0.73578 0.207937,-1.16765 0.016,-0.13595 0.06398,-0.27191 0.04799,-0.38388 -0.016,-0.14396 -0.09597,-0.27192 -0.231929,-0.3279 -0.143957,-0.064 -0.335899,-0.032 -0.383884,0.13596 -0.03199,0.11996 -0.02399,0.25592 -0.03999,0.37589 -0.016,0.14395 -0.05598,0.27991 -0.08797,0.42387 -0.03999,0.15995 -0.06398,0.3199 -0.08797,0.47985 z m -5.390365,1.08767 c -0.247925,0.1999396 -0.383884,-0.088 -0.479855,-0.28791 -0.191942,-0.39188 -0.399879,-0.88773 -0.543835,-1.24762 0,0.35989 0.07998,0.79975 0.143956,1.18364 0.02399,0.14395 0.119964,0.43986 -0.09597,0.43187 -0.175946,-0.008 -0.207937,-0.63181 -0.239927,-0.79976 -0.08797,-0.49585 -0.08797,-0.91972 -0.159951,-1.41557 -0.008,-0.08 -0.03199,-0.15995 -0.02399,-0.23993 0.008,-0.11996 0.07998,-0.21593 0.199939,-0.14395 0.119964,0.064 0.175947,0.20793 0.223932,0.3199 0.207937,0.46386 0.367889,0.9997 0.591821,1.44756 0.02399,-0.27992 -0.04799,-0.61581 -0.07998,-1.02369 -0.02399,-0.25592 -0.183944,-0.88773 0.09597,-0.87973 0.143956,0.04 0.103969,0.20793 0.111966,0.35189 0.05598,0.74377 0.247925,1.55153 0.255924,2.3033 z"
     id="path4"
     inkscape:connector-curvature="0"
     style="stroke-width:0.07997575" />
  <path
     d="m 25.340584,4.6275206 c 0.05598,0 0.08797,0.10396 0.09597,0.15995 0.008,0.10397 -0.03199,0.21593 -0.04799,0.3199 -0.05598,0.37589 -0.111966,0.79976 -0.175946,1.20763 -0.02399,0.16795 -0.08797,0.37589 -0.06398,0.51185 0.03199,0.16795 0.239927,0.3199 0.447864,0.28791 0.327901,-0.048 0.303908,-0.47985 0.367889,-0.86374 0.06398,-0.39188 0.127961,-0.59182 0.191941,-1.05568 0.02399,-0.15995 0.06398,-0.44786 0.191942,-0.43187 0.111966,0.016 0.07198,0.31191 0.04799,0.54384 -0.03999,0.41587 -0.135959,0.70379 -0.191942,1.10366 -0.06398,0.45587 -0.111966,0.81576 -0.479855,0.9437196 -0.423871,0.14396 -0.847743,-0.1919396 -0.815752,-0.6717996 0.02399,-0.26392 0.127961,-0.55183 0.159951,-0.79976 0.03999,-0.3039 0.05598,-0.54383 0.09597,-0.83174 0.02399,-0.15196 0.05598,-0.35989 0.127961,-0.41588 0.01599,-0.008 0.03199,-0.008 0.04799,-0.008 z m -8.581399,2.64719 c -0.215934,0.1199696 -0.255922,-0.36789 -0.287912,-0.54383 -0.09597,-0.47186 -0.151954,-0.90373 -0.223932,-1.36759 -0.016,-0.11996 -0.06398,-0.23193 -0.07998,-0.35989 -0.008,-0.08 -0.03199,-0.23993 0.03199,-0.30391 0.119964,-0.11196 0.199939,0.19994 0.215935,0.27192 0.008,0.08 0.02399,0.15995 0.03999,0.24793 0.06398,0.29591 0.103969,0.47985 0.127962,0.78376 0.04798,0.47985 0.271917,0.92772 0.175946,1.27161 z m -1.639503,-2.11935 c 0.09597,0.29591 0.175947,0.62381 0.255923,0.94371 0.111966,0.024 0.631808,-0.31191 0.703786,-0.08 0.07198,0.23993 -0.471857,0.23993 -0.639806,0.3359 0.016,0.26392 0.08797,0.44787 0.159952,0.68779 0.05598,0.17595 0.183944,0.5438396 -0.03199,0.5598296 -0.159952,0.008 -0.271918,-0.5038396 -0.319903,-0.6877896 -0.02399,-0.096 -0.016,-0.22393 -0.03199,-0.3199 -0.07997,-0.51984 -0.335898,-1.15165 -0.319903,-1.62351 0.191942,-0.032 0.479855,-0.18394 0.703787,-0.19194 0.09597,0 0.255922,0.024 0.207937,0.17595 -0.04799,0.13595 -0.543835,0.11996 -0.687792,0.19994 z m 12.068342,1.73547 c -0.127962,-0.048 -0.23193,-0.11996 -0.351894,-0.17595 -0.07998,0.10397 -0.151954,0.25593 -0.223932,0.39988 -0.03199,0.072 -0.05598,0.14396 -0.111966,0.2079396 -0.02399,0.032 -0.04799,0.056 -0.08797,0.064 -0.159952,0.048 -0.151954,-0.1279596 -0.119964,-0.2319296 0.03999,-0.13596 0.127961,-0.24793 0.191942,-0.37589 0.279915,-0.55983 0.479855,-1.22363 0.815753,-1.73547 0.199939,-0.13596 0.143956,0.16795 0.143956,0.35189 0,0.11997 0.02399,0.27192 0.03199,0.44787 0.02399,0.47185 -0.03999,1.06367 -0.06398,1.39957 -0.016,0.1839496 0.02399,0.3838896 -0.111966,0.3998796 -0.26392,0.024 -0.09597,-0.5518296 -0.111966,-0.7517696 z m -0.271918,-0.39988 c 0.103969,0.032 0.175947,0.096 0.287913,0.12796 0.05598,-0.26392 0.03999,-0.69579 0.016,-0.9917 -0.08797,0.30391 -0.215935,0.56783 -0.303908,0.86374 z m 1.519539,-1.22363 c -0.07998,0.77577 -0.335898,1.51154 -0.495849,2.2633196 0.111966,0.11996 0.639806,0.12796 0.623811,0.3518904 -0.02399,0.2239304 -0.343896,0.016 -0.431869,-0.016 -0.167949,-0.056 -0.415874,-0.08 -0.46386,-0.1919404 -0.04799,-0.10397 0.06398,-0.4238696 0.111966,-0.6238096 0.135959,-0.57582 0.343896,-1.3116 0.49585,-1.76746 0,-0.008 0.08797,-0.10397 0.159951,-0.016 z m -15.43532,0.36789 c 0.06398,0.27192 0.167949,0.63981 0.255922,0.94371 0.008,0.016 0.335898,-0.10396 0.367889,-0.11196 0.06398,-0.016 0.119963,-0.032 0.183944,-0.032 0.143956,0.008 0.183944,0.11996 0.07198,0.21593 -0.09597,0.08 -0.239927,0.096 -0.351893,0.11997 -0.016,0 -0.19994,0.048 -0.191942,0.064 0.07998,0.3279 0.223932,0.5838196 0.287913,0.92772 0.279915,-0.04 0.567828,-0.2719204 0.831748,-0.1759504 0.103968,0.1919404 -0.175947,0.2479204 -0.367889,0.3039104 -0.239927,0.072 -0.535837,0.2319304 -0.671796,0.016 -0.07198,-0.11996 -0.103969,-0.3678904 -0.159952,-0.5438304 -0.175946,-0.5518396 -0.407876,-1.2076396 -0.511845,-1.8314496 0.191942,-0.072 0.607816,-0.27991 0.815753,-0.27192 0.07998,0.008 0.127961,0.032 0.143957,0.08 0.05598,0.21593 -0.567828,0.22393 -0.703787,0.29591 z m 16.562979,-0.08 c 0.143956,0.064 0.03999,0.21594 0.016,0.30391 -0.135959,0.55183 -0.247925,1.07168 -0.431869,1.6395096 -0.06398,0.1999304 -0.09597,0.6717908 -0.367889,0.5598304 -0.09597,-0.18395 0.03999,-0.3918904 0.111966,-0.6078204 0.127961,-0.3918796 0.215935,-0.8397496 0.351894,-1.2556196 0.07998,-0.25592 0.151954,-0.51984 0.303907,-0.63981 z m 1.039684,0.55184 c -0.07998,0.41587 -0.303907,0.75977 -0.431869,1.16764 -0.05598,0.1759496 -0.08797,0.3838896 -0.143956,0.55983 -0.04799,0.13596 -0.111966,0.4558704 -0.239927,0.4638604 -0.247925,0.008 -0.05598,-0.4318704 -0.016,-0.5438304 0.199939,-0.59182 0.407876,-1.15165 0.62381,-1.70349 0.008,-0.008 -0.255922,-0.096 -0.279915,-0.11196 -0.04799,-0.024 -0.07998,-0.048 -0.111966,-0.088 -0.02399,-0.032 -0.04799,-0.17594 0.02399,-0.15995 0.175947,0.008 0.391881,0.088 0.655801,0.17595 0.19994,0.064 0.423872,0.15195 0.431869,0.23993 0.016,0.26392 -0.391881,0.04 -0.511845,0 z m -17.77861,1.5275296 c 0.03999,0.088 0.07198,0.1759504 0.111966,0.2639204 0.03999,0.096 0.111966,0.3039104 -0.04799,0.3359004 -0.183944,0.032 -0.207937,-0.2559204 -0.271918,-0.4158704 -0.07997,-0.2079404 -0.255922,-0.4798604 -0.271917,-0.6558 -0.175947,0.048 -0.319903,0.11996 -0.511845,0.1439496 -0.02399,0 0.183944,0.5278404 0.207937,0.5758304 0.03999,0.096 0.07198,0.18394 0.09597,0.2799104 0.02399,0.088 0.09597,0.3039104 -0.05598,0.3279004 -0.143957,0.016 -0.167949,-0.2079304 -0.19994,-0.3039004 C 11.792691,7.9384906 11.664727,7.6425802 11.544763,7.3226802 11.432797,7.0187706 11.352821,6.6908706 11.28884,6.3949606 c -0.02399,-0.088 -0.103968,-0.22393 -0.07198,-0.31191 0.04798,-0.15995 0.223933,0.11997 0.247925,0.16795 0.03199,0.088 0.03999,0.18395 0.07198,0.27192 0.05598,0.19994 0.159951,0.38388 0.207937,0.55983 0.207937,-0.024 0.351893,-0.10397 0.52784,-0.15995 -0.05598,-0.21593 -0.119964,-0.39188 -0.175947,-0.6558 -0.03199,-0.15995 -0.175947,-0.47986 0.016,-0.49585 0.09597,-0.008 0.183944,0.23193 0.207937,0.3199 0.03999,0.13596 0.03999,0.27992 0.09597,0.43187 0.07198,0.19194 0.135959,0.39988 0.199939,0.59182 0.03199,0.096 0.07198,0.1919396 0.111966,0.2879096 0.03199,0.08 0.06398,0.15196 0.09597,0.23193 z m 18.53838,-1.5115396 c 0.008,0.016 0.016,0.024 0.02399,0.04 0.02399,0.10397 0.008,0.23993 0.016,0.3439 0.016,0.21593 0.008,0.43186 0.04799,0.6478 0.143957,-0.14396 0.359891,-0.23993 0.52784,-0.38388 0.07198,-0.064 0.119964,-0.15196 0.191942,-0.22394 0.03999,-0.04 0.183944,-0.12796 0.23193,-0.072 0.07998,0.096 -0.111966,0.27991 -0.167949,0.33589 -0.247925,0.27192 -0.607816,0.46386 -0.831748,0.7677696 -0.07998,0.2239304 -0.207937,0.6158108 -0.319903,0.9117212 -0.04799,0.13596 -0.06398,0.3758904 -0.287913,0.23993 0.008,-0.3119004 0.175947,-0.6478004 0.287913,-0.9757008 0.07998,-0.2399304 0.135959,-0.4478704 0.111966,-0.83175 -0.008,-0.15195 -0.03199,-0.30391 -0.03199,-0.44786 0,-0.11197 -0.016,-0.28792 0.07998,-0.36789 0.03999,-0.024 0.08797,-0.016 0.119964,0.016 z m -20.769703,0.38389 c 0.199939,0.45586 0.423871,1.0956596 0.655801,1.6395004 0.06398,0.15995 0.287913,0.5518304 0.04798,0.5918204 -0.191942,0.032 -0.239928,-0.3199004 -0.303908,-0.4638604 -0.231929,-0.5278404 -0.439866,-1.1116604 -0.62381,-1.6714904 -0.151954,0.032 -0.319903,0.18394 -0.4958498,0.096 -0.03199,-0.15995 0.2239318,-0.24793 0.4158738,-0.3359 0.175947,-0.08 0.431869,-0.21594 0.543834,-0.22393 0.06398,-0.008 0.159952,0.016 0.159952,0.11196 0,0.16795 -0.287912,0.15995 -0.399878,0.25593 z m 8.621386,7.0378624 c 0.375886,-0.008 0.75977,0.016 1.079673,0.016 0.03199,0.11996 0.03999,0.23193 0.016,0.35189 -0.08797,0.048 -0.239927,0.024 -0.367889,0.032 0.016,0.68779 -0.008,1.46356 0,2.19933 -0.08797,0.064 -0.279915,0.064 -0.367888,0 v -2.23132 h -0.415874 c -0.02399,-0.10397 -0.05598,-0.3359 0.05598,-0.36789 z m 2.263314,0.048 c 0.02399,0.75977 0.02399,1.75147 0,2.56722 -0.08797,0.08 -0.223932,0.016 -0.335898,-0.016 -0.06398,-0.3279 -0.016,-0.77576 -0.03199,-1.15964 -0.04799,-0.032 -0.167949,-0.008 -0.247924,-0.016 -0.016,0.37589 0.03999,0.83175 -0.03199,1.15965 -0.119963,0.024 -0.303908,0.056 -0.383883,-0.032 -0.03199,-0.81575 -0.008,-1.71148 0.04799,-2.48725 0.103969,-0.032 0.271918,-0.008 0.367889,0.016 v 0.9757 c 0.04799,0.032 0.167949,0.008 0.247924,0.016 0.016,-0.3279 -0.03999,-0.72778 0.03199,-1.0077 0.09597,-0.056 0.207937,-0.048 0.335898,-0.016 z m 1.247622,0.072 c 0.02399,0.08 0.03199,0.24792 -0.03199,0.28791 -0.111966,0.032 -0.287912,0.008 -0.423871,0.016 -0.03199,0.19994 -0.008,0.46386 -0.01599,0.6878 0.135958,0.008 0.303908,-0.016 0.407876,0.016 0.016,0.08 0.03999,0.26392 -0.016,0.3199 -0.07998,0.056 -0.255923,0.016 -0.383884,0.032 -0.03199,0.21594 -0.008,0.50385 -0.016,0.74378 0.135959,0.008 0.311906,-0.016 0.423872,0.016 0.008,0.08 0.04799,0.19994 0.016,0.27192 -0.279915,0.072 -0.559831,0.048 -0.823751,0 -0.016,-0.52784 -0.03199,-1.07167 -0.03199,-1.6475 0,-0.27192 -0.03199,-0.54383 0.04799,-0.75977 0.223932,-0.048 0.655801,-0.056 0.847743,0.016 z m -0.895729,11.23659 c 0.311906,-0.04 0.447864,0.18394 0.503847,0.44786 0.06398,0.3519 0.03199,0.71179 0.02399,1.06368 0,0.11197 0,0.22393 0.008,0.3279 0.008,0.18395 0.08797,0.39188 -0.03199,0.55983 -0.103968,0.13596 -0.29591,0.22393 -0.463859,0.23193 -0.103968,0 -0.343896,-0.04 -0.439867,-0.14395 -0.175946,-0.18395 -0.119963,-1.40758 -0.09597,-1.83945 0.016,-0.34389 0.127962,-0.59982 0.495849,-0.6478 z m 0.183944,0.40788 c -0.016,-0.032 -0.03999,-0.064 -0.08797,-0.08 -0.08797,-0.032 -0.199939,0.024 -0.23193,0.11197 -0.07997,0.19194 -0.016,0.6478 -0.016,0.9917 0,0.12796 -0.016,0.25592 -0.016,0.38388 0,0.15195 -0.008,0.3279 0.06398,0.47186 0.02399,0.04 0.06398,0.048 0.111966,0.048 0.159951,0 0.159951,-0.12796 0.183944,-0.25592 0.03199,-0.15196 0.03999,-0.31191 0.03999,-0.46386 0.008,-0.27192 -0.008,-0.54384 -0.016,-0.81575 0,-0.072 -0.008,-0.14396 -0.016,-0.21594 0,-0.064 0.008,-0.12796 -0.016,-0.17594 z m -1.079672,0.62381 c -0.09597,-0.024 -0.239928,0 -0.327901,-0.032 -0.03199,-0.08 -0.03999,-0.15996 -0.03999,-0.23993 -0.008,-0.12796 0.03199,-0.30391 -0.135959,-0.3439 -0.151953,-0.04 -0.231929,0.15196 -0.239927,0.27992 -0.02399,0.19994 0,0.59182 0.016,0.92772 0.008,0.26392 -0.03999,0.59982 0.127962,0.6558 0.343895,0.11996 0.199939,-0.44787 0.279915,-0.68779 0.06398,-0.016 0.215934,-0.032 0.279915,0 0.08797,0.29591 0.07998,0.76776 -0.09597,0.92772 -0.239927,0.22393 -0.775765,0.12796 -0.895729,-0.11197 -0.03999,-0.072 -0.06398,-0.20794 -0.07998,-0.31191 -0.05598,-0.52784 0.03199,-1.35958 0.06398,-1.75946 0.111966,-0.27992 0.423872,-0.39188 0.735777,-0.29591 0.07998,0.024 0.135959,0.072 0.191942,0.12796 0.04799,0.048 0.103969,0.096 0.127961,0.15995 0.02399,0.072 0.016,0.15995 0.02399,0.23193 0,0.024 -0.008,0.47985 -0.03199,0.47186 z m -8.437442,-0.19195 c -0.06398,0.016 -0.223932,0.032 -0.26392,-0.016 -0.03999,-0.13596 0.04798,-0.35189 -0.04799,-0.45586 -0.351893,-0.15196 -0.359891,0.3199 -0.199939,0.56783 0.159951,0.25592 0.519842,0.57582 0.551833,0.9757 0.016,0.30391 -0.07998,0.74377 -0.46386,0.74377 -0.463859,-0.008 -0.511845,-0.57582 -0.431869,-0.91172 0.08797,-0.016 0.207937,-0.04 0.29591,-0.016 0.04799,0.18394 -0.06398,0.52784 0.159952,0.55183 0.143956,-0.08 0.111966,-0.31191 0.09597,-0.40788 -0.016,-0.08 -0.06398,-0.18394 -0.111966,-0.26392 -0.135959,-0.23993 -0.407877,-0.47985 -0.471857,-0.67179 -0.07998,-0.24793 -0.01599,-0.63181 0.09597,-0.75178 0.127961,-0.14395 0.503847,-0.20793 0.703786,-0.096 0.175947,0.088 0.159952,0.51185 0.08797,0.75177 z m 0.687791,-0.73577 c 0.03999,0.24792 -0.016,0.57582 -0.016,0.92772 0,0.33589 -0.05598,0.71178 -0.016,0.9757 0.02399,0.15995 0.143956,0.41587 0.375886,0.27992 0.111966,-0.27992 0.06398,-0.6878 0.06398,-1.06368 v -1.09567 c 0.07998,-0.048 0.23193,-0.064 0.327901,-0.016 -0.008,0.43986 0.03199,0.87973 0.02399,1.32759 0,0.28792 0.04799,0.6718 -0.06398,0.95171 -0.119963,0.31191 -0.687791,0.39189 -0.887731,0.11197 -0.07198,-0.10397 -0.135958,-0.37589 -0.159951,-0.59982 -0.02399,-0.23993 0,-0.62381 0,-0.95971 0,-0.3199 -0.03999,-0.80775 0.09597,-0.87973 0.07198,-0.016 0.207937,-0.008 0.255922,0.04 z m 4.870524,0.016 c 0.111966,0.24793 0.175946,0.54384 0.279915,0.79976 0.111966,-0.23993 0.223932,-0.47985 0.279915,-0.76777 0.08797,-0.016 0.23193,-0.072 0.29591,0 0,0.20794 -0.111966,0.41588 -0.207937,0.62381 -0.07198,0.16795 -0.215934,0.40788 -0.247925,0.59982 -0.07198,0.40788 0.103969,0.84775 -0.016,1.27162 -0.08797,0.024 -0.199939,0.008 -0.279915,0 -0.01599,-0.35989 -0.03199,-0.72778 -0.01599,-1.04769 0,-0.088 0.03199,-0.16794 0.01599,-0.24792 -0.01599,-0.096 -0.09597,-0.21594 -0.143956,-0.3279 -0.04799,-0.11996 -0.07198,-0.24793 -0.111966,-0.35989 -0.05598,-0.15995 -0.183945,-0.30391 -0.143957,-0.53584 0.07998,-0.072 0.207937,-0.024 0.295911,-0.008 z m 5.878217,-0.032 c 0.16795,0.008 0.327901,-0.008 0.49585,0 0.215935,0 0.367889,0.048 0.431869,0.27992 0.05598,0.19994 0.07198,0.44786 0.04799,0.6558 -0.008,0.088 -0.03999,0.20794 -0.09597,0.27192 0.119963,0.08 0.07198,0.26392 0.09597,0.48785 0.03199,0.3279 0.103968,0.73578 -0.19994,0.84774 -0.191941,0.072 -0.575825,0.008 -0.815752,-0.016 -0.02399,-0.79176 -0.02399,-1.68749 0,-2.47925 0,-0.024 0.016,-0.04 0.03999,-0.048 z m 0.327901,0.31191 v 0.76777 c 0.06398,0 0.127961,0 0.191942,-0.016 0.08797,-0.024 0.09597,-0.08 0.09597,-0.16795 0,-0.16795 0.04799,-0.43987 -0.07998,-0.56783 -0.06398,-0.008 -0.127961,-0.016 -0.207937,-0.016 z m 0.319903,1.15165 c -0.016,-0.032 -0.03199,-0.056 -0.05598,-0.072 -0.03999,-0.024 -0.255922,-0.096 -0.255922,0.008 v 0.81575 c 0.07998,0.032 0.231929,0.032 0.311905,0 0.016,-0.008 0.008,-0.36789 0.008,-0.40788 0,-0.10396 0.03199,-0.24792 -0.008,-0.34389 z m 1.719479,-0.15995 c 0.191942,0.10397 -0.02399,0.91972 0.199939,1.22363 -0.09597,0.064 -0.311905,0.016 -0.455862,0.032 -0.09597,-0.31191 0.03199,-0.86374 -0.08797,-1.14366 -0.04799,-0.024 -0.103968,-0.024 -0.175947,-0.016 -0.03999,0.3359 -0.008,0.73578 -0.016,1.09567 -0.103968,0.024 -0.303908,0.024 -0.407876,0 0.016,-0.80776 -0.03999,-1.71948 0.03199,-2.44726 0.367889,-0.04 0.943714,-0.11997 1.015692,0.26392 0.05598,0.26392 0,0.84774 -0.103968,0.9917 z m -0.543835,-0.95971 c -0.008,0.27192 0,0.54383 0.016,0.79976 0.07198,0 0.23193,0.008 0.271917,-0.056 0.03199,-0.04 0.008,-0.11996 0.008,-0.15995 0,-0.064 0.008,-0.12796 0.008,-0.18394 0,-0.072 -0.008,-0.15196 -0.016,-0.22393 -0.008,-0.04 0,-0.12797 -0.03199,-0.15996 -0.05598,-0.064 -0.191942,0 -0.255922,-0.016 z m 3.75886,2.21533 c -0.07998,-0.17595 -0.04799,-0.39988 -0.04799,-0.60782 0,-0.60781 -0.02399,-1.3276 0.03199,-1.89542 0.311905,-0.056 0.727779,-0.056 0.879733,0.14395 0.06398,0.088 0.07998,0.22393 0.07198,0.3279 -0.008,0.14396 -0.016,0.28792 -0.016,0.43187 0,0.31191 0.008,0.62381 0.008,0.93572 0,0.15995 0.016,0.34389 -0.016,0.49585 -0.06398,0.27991 -0.623811,0.21593 -0.911724,0.16795 z m 0.303908,-2.21533 c 0.008,0.60781 -0.02399,1.25562 0.016,1.83144 0.103969,-0.008 0.239927,0.016 0.311906,-0.016 -0.05598,-0.55983 0.03199,-1.25562 -0.04799,-1.79146 -0.06398,-0.032 -0.223932,0.024 -0.279915,-0.024 z m -13.795818,1.02369 c -0.04799,0.34389 0.016,0.79176 -0.03199,1.12766 -0.06398,0.064 -0.247925,0.088 -0.3279,0.016 -0.04799,-0.74377 -0.06398,-1.72748 0.016,-2.44726 0.111966,0 0.711784,-0.096 0.863738,0.016 0.04799,0.032 0.103968,0.21593 0.111966,0.24792 0.04799,0.27192 0.03199,0.85574 -0.09597,0.97571 -0.135959,0.11996 -0.335898,0.064 -0.535838,0.064 z m 0.271918,-0.94372 c -0.103969,0.008 -0.239927,-0.016 -0.29591,0 0.03199,0.18395 0.008,0.41588 0.016,0.62381 0.159951,0.008 0.26392,0.024 0.343896,-0.064 -0.016,-0.19194 0.07998,-0.46385 -0.06398,-0.55983 z m 1.047682,-0.35989 c 0.08797,0.59182 0.03199,1.38358 0.04799,2.08737 0.111966,0.016 0.399879,-0.032 0.519842,0.032 0.008,0.096 0.016,0.28791 -0.016,0.35989 -0.271918,0.024 -0.663799,0.048 -0.879733,-0.048 0.016,-0.79976 -0.03999,-1.67949 0.03199,-2.43127 0.09597,-0.032 0.199939,-0.032 0.29591,0 z m 9.932989,-0.016 c 0.04799,-0.008 0.07198,0.36789 0.07198,0.39988 0.02399,0.20793 0.04799,0.40787 0.103969,0.60781 0.04799,0.17595 0.09597,0.35989 0.135958,0.54384 0.03199,0.16795 0.03199,0.3359 0.06398,0.50384 0.02399,0.14396 0.111966,0.29592 0.06398,0.43987 -0.09597,0.032 -0.23193,0.016 -0.311906,-0.048 -0.02399,-0.15996 -0.03999,-0.3359 -0.07998,-0.48786 -0.08797,-0.064 -0.223932,-0.008 -0.343895,-0.016 -0.02399,0.19194 -0.016,0.40788 -0.09597,0.55183 -0.06398,0.024 -0.23193,0.024 -0.29591,0 0.06398,-0.81575 0.207937,-1.69548 0.35989,-2.47925 0.016,0 0.008,-0.032 0.03199,-0.032 0.103968,0 0.175946,0.032 0.29591,0.016 z m -0.255922,1.59951 h 0.231929 c -0.03199,-0.24792 -0.04799,-0.51184 -0.111966,-0.73577 -0.04799,0.23193 -0.07198,0.49585 -0.119963,0.73577 z m 2.039381,-1.55153 v 1.25562 c 0,0.43187 0.04799,0.88773 -0.06398,1.22363 -0.08797,0.008 -0.23193,-0.016 -0.343896,-0.032 -0.07998,-0.42387 -0.255922,-0.88773 -0.343896,-1.36758 -0.05598,0.43187 0.03999,0.94371 -0.016,1.38358 -0.09597,0.032 -0.287913,0.024 -0.343896,-0.032 -0.07998,-0.70379 0.008,-1.69549 -0.016,-2.44726 0.119964,-0.024 0.239927,-0.016 0.351894,0 0.183944,0.38388 0.335898,0.79176 0.407876,1.28761 0.05598,-0.39188 -0.03199,-0.93572 0.04799,-1.30361 0.111966,-0.016 0.167949,0 0.319903,0.032 z m -14.635563,-0.048 c 0.279915,0.064 0.567828,-0.096 0.767768,0.032 0.135958,0.088 0.231929,1.00769 0.09597,1.19164 -0.127961,0.16795 -0.343895,0.10397 -0.567827,0.12796 -0.04799,0.3279 0.016,0.76777 -0.03199,1.09567 -0.08797,0.016 -0.231929,0.032 -0.311905,-0.032 v -2.36729 c 0.016,-0.024 0.03199,-0.04 0.04798,-0.048 z m 0.287913,0.9757 c 0.111966,-0.008 0.26392,0.024 0.327901,-0.032 -0.016,-0.17594 -0.008,-0.39188 -0.04799,-0.55183 -0.07198,-0.032 -0.175946,-0.032 -0.279915,-0.032 z m 8.205512,1.01569 c -0.016,0.17595 0.03999,0.41588 -0.06398,0.50385 -0.103969,0.04 -0.23193,0 -0.29591,-0.048 0.008,-0.15996 -0.016,-0.3519 0.016,-0.48786 0.09597,-0.064 0.255922,-0.008 0.343895,0.032 z m -0.799757,2.63121 c 0.127961,-0.27992 -0.175947,-0.45587 -0.383884,-0.52784 -1.591517,-0.18395 -1.303605,1.85543 -0.119963,1.90342 0.503847,0.016 1.05568,-0.25592 1.519539,-0.40788 0.103968,-0.032 0.383884,-0.14395 0.487852,-0.024 0.143956,0.17595 -0.127961,0.3439 -0.06398,0.44786 0.359891,0.11997 0.767768,-0.40787 1.175644,-0.34389 0.167949,0.024 0.399879,0.24792 0.223932,0.48785 H 37.00105 c 0.159951,0 0.679794,-0.04 0.711784,0.08 0.05598,0.21593 -0.583823,0.14395 -0.767767,0.14395 -10.78873,0 -21.921355,-0.024 -32.9660048,-0.024 -0.16795,0 -0.831748,0.08 -0.807756,-0.14396 0.01599,-0.12796 0.52784,-0.08 0.687792,-0.08 H 15.783481 c 0.016,-0.096 -0.175947,-0.27192 -0.07998,-0.44787 0.591821,-0.20793 0.9917,0.30391 1.479552,0.31991 0.08797,-0.16795 -0.311906,-0.23193 -0.159952,-0.48785 0.151954,-0.25593 0.743775,0.21593 0.927719,0.27991 0.391881,0.14396 0.927719,0.26392 1.359588,0.14396 0.52784,-0.14396 0.903726,-0.77577 0.687791,-1.35959 -0.07198,-0.20794 -0.303907,-0.44787 -0.62381,-0.46386 -0.375887,-0.016 -0.807756,0.17595 -0.72778,0.63181 0.29591,0.024 0.29591,-0.29591 0.607816,-0.30391 0.55983,-0.016 0.543835,0.81575 0.06398,0.96771 -0.599818,0.19194 -1.031687,-0.41588 -0.88773,-0.91173 0.111966,-0.37588 0.711784,-0.68779 1.231626,-0.50384 0.239927,0.08 0.439867,0.33589 0.503847,0.48785 0.287913,0.68779 -0.191941,1.23962 -0.583823,1.67949 0.43187,-0.032 0.911724,-0.016 1.375583,-0.024 -0.255922,-0.44787 -0.703786,-1.13566 -0.367888,-1.74348 0.127961,-0.23193 0.415874,-0.44786 0.767767,-0.48785 0.271918,-0.032 0.655801,0 0.847743,0.19994 0.46386,0.47186 0.02399,1.39158 -0.623811,1.29561 -0.511845,-0.072 -0.59182,-0.95171 0,-0.9917 0.223932,0.008 0.335898,0.14396 0.535838,0.20794 z m 3.215025,3.01508 c 0.167949,0.82375 0.335898,1.6475 0.543835,2.43127 -0.183944,-0.008 -0.439866,0.024 -0.647803,0 -0.04799,-0.12797 -0.03199,-0.31991 -0.07998,-0.44787 -0.08797,-0.04 -0.247925,-0.008 -0.367889,-0.016 -0.06398,0.13595 -0.07198,0.3199 -0.103968,0.48785 -0.143956,-0.008 -0.487852,0.032 -0.631808,-0.04 0.175946,-0.82375 0.335898,-1.6635 0.567827,-2.43126 0.207937,-0.032 0.551833,-0.056 0.719782,0.016 z m -0.447864,1.47955 h 0.119964 c -0.02399,-0.13595 -0.008,-0.3039 -0.07998,-0.38388 0.016,0.14396 -0.04799,0.23193 -0.03999,0.38388 z m -1.231627,-1.46353 c -0.016,0.80775 0.03199,1.74347 -0.016,2.44726 -0.167949,-0.008 -0.391881,0.032 -0.503847,-0.04 -0.06398,-0.3439 0.02399,-0.71179 0,-1.09567 -0.143956,0.35189 -0.223932,0.75977 -0.383884,1.09567 -0.119963,0.048 -0.311905,0.008 -0.463859,0.024 -0.151954,-0.27991 -0.215935,-0.6478 -0.319903,-0.96771 -0.04799,0.27992 0,0.70379 -0.03999,0.92772 -0.127961,0.032 -0.383884,0.032 -0.503847,0 -0.02399,-0.74377 -0.05598,-1.67949 0.02399,-2.39127 0.191941,-0.04 0.463859,-0.008 0.687791,-0.024 0.183944,0.38388 0.239927,0.89572 0.423872,1.27161 0.159951,-0.39188 0.231929,-0.87174 0.407876,-1.25562 0.191942,-0.04 0.455862,-0.024 0.687791,0.008 z m -11.236593,0.024 c 0.016,0.096 -0.008,0.31191 0,0.46386 h -0.367889 c -0.111966,0.67979 0.02399,1.23962 -0.03999,1.87943 -0.183945,0.016 -0.391882,-0.024 -0.623811,0 -0.05598,-0.53584 0.008,-1.26362 0.02399,-1.86344 -0.151954,-0.056 -0.271917,-0.008 -0.463859,-0.04 -0.06398,-0.12796 -0.016,-0.27192 -0.02399,-0.44787 0.543835,0.008 0.967707,0 1.495547,0.008 z m 4.310693,-0.024 c 0.303908,0.04 0.807755,-0.064 1.05568,0.016 0.687791,0.22394 0.303908,1.24762 0.407876,2.08737 -0.08797,0.48785 -1.023689,0.35189 -1.519539,0.30391 -0.03199,-0.73578 -0.03199,-1.61551 0,-2.35129 0.008,-0.024 0.03199,-0.04 0.05598,-0.056 z m 0.511845,0.48785 v 1.47955 c 0.06398,0.016 0.279915,0.016 0.343896,-0.04 0.09597,-0.35989 0.103968,-1.08767 0,-1.39957 -0.07998,-0.056 -0.215935,-0.04 -0.343896,-0.04 z m 12.604179,-0.44786 c -0.111966,0.43186 -0.359891,0.71978 -0.52784,1.09566 0.167949,0.51985 0.575825,0.79976 0.807755,1.25562 -0.303908,-0.024 -0.575826,0.048 -0.847743,0 -0.135959,-0.20793 -0.271918,-0.41587 -0.447864,-0.58382 -0.06398,0.16795 0.02399,0.48785 -0.06398,0.63181 h -0.607816 c -0.03199,-0.75977 -0.03199,-1.6555 0,-2.40727 0.207937,0 0.423872,-0.008 0.607816,0.016 0.03999,0.17595 0.008,0.41588 0.02399,0.63181 0.135959,-0.22393 0.255922,-0.45586 0.423871,-0.6478 0.207937,-0.04 0.431869,-0.016 0.631809,0.008 z m -15.883185,1.07167 c 0.375886,0.19994 0.135959,0.88773 0.383884,1.21563 -0.175947,0.064 -0.543836,0.064 -0.711785,0.024 -0.215934,-0.22393 0.127962,-1.00769 -0.303908,-1.01569 -0.04798,0.31191 0,0.71179 -0.03999,1.03169 -0.135959,0.032 -0.391882,0.032 -0.52784,0 -0.04799,-0.72778 0,-1.62351 -0.02399,-2.32729 0.431869,0.016 1.175643,-0.17595 1.359588,0.22393 0.111966,0.24792 0.09597,0.70378 -0.135959,0.84774 z m -0.647804,-0.19994 c 0.111966,0.008 0.191942,-0.008 0.26392,-0.04 0.008,-0.14395 -0.008,-0.25592 -0.03999,-0.36789 -0.03999,-0.048 -0.183944,0.008 -0.223932,-0.04 z m 14.107723,0.19994 c 0.375886,0.19994 0.135959,0.88773 0.383884,1.21563 -0.175947,0.064 -0.543835,0.064 -0.711784,0.024 -0.215935,-0.22393 0.127961,-1.00769 -0.303908,-1.01569 -0.04799,0.31191 0,0.71179 -0.03999,1.03169 -0.135959,0.032 -0.391881,0.032 -0.52784,0 -0.04799,-0.72778 0,-1.62351 -0.02399,-2.32729 0.431869,0.016 1.175644,-0.17595 1.359588,0.22393 0.111966,0.24792 0.09597,0.70378 -0.135959,0.84774 z m -0.647803,-0.19994 c 0.111966,0.008 0.191942,-0.008 0.26392,-0.04 0.008,-0.14395 -0.008,-0.25592 -0.03999,-0.36789 -0.03999,-0.048 -0.183944,0.008 -0.223932,-0.04 z m -11.012662,-0.87173 c 0.19994,0.3279 0.191942,0.75977 0.279916,1.15165 0.08797,0.40787 0.255922,0.79176 0.3279,1.17564 -0.135959,0.072 -0.367888,0 -0.607816,0.024 -0.07997,-0.15195 -0.103968,-0.35189 -0.159951,-0.52784 -0.06398,-0.04 -0.207937,-0.008 -0.303908,-0.016 -0.03999,0.17594 -0.103968,0.35989 -0.07998,0.54383 -0.223932,-0.016 -0.495849,0.024 -0.687791,-0.024 0.135959,-0.73578 0.319903,-1.59952 0.52784,-2.32729 0.183944,0.016 0.455862,-0.008 0.703786,0 z m -0.407876,1.3196 h 0.143956 c -0.03999,-0.11197 -0.03199,-0.26392 -0.07998,-0.36789 -0.03999,0.10397 -0.04799,0.23992 -0.06398,0.36789 z m 22.329231,2.20733 c -0.02399,0.28791 -0.415874,0.19994 -0.711785,0.19994 -0.88773,0 -1.855437,0.016 -2.751165,0 -0.943714,-0.024 -1.927416,-0.056 -2.999091,-0.024 -1.879431,0.064 -5.54232,-0.064 -8.037564,0.024 0.02399,0.096 0.119964,0.22393 0.06398,0.36788 -0.127961,0.31991 -0.679794,0.064 -0.911724,-0.04 -0.119963,0.47985 -0.519842,0.048 -0.79176,-0.064 -0.183944,-0.072 -0.455861,-0.16795 -0.671796,-0.10397 -0.247925,0.08 -0.439867,0.54383 -0.26392,0.80775 0.111966,0.16795 0.55983,0.28792 0.663799,-0.08 -0.09597,-0.064 -0.239927,0.17594 -0.423872,0.04 -0.231929,-0.17594 0.008,-0.42387 0.143957,-0.44786 0.191942,-0.032 0.455862,0.064 0.503847,0.23993 0.151954,0.59982 -0.703787,0.71178 -0.991699,0.42387 -0.311906,-0.31191 -0.07998,-0.88773 0.223932,-1.15165 h -0.79176 c 0.07998,0.23993 0.279915,0.35189 0.3279,0.58382 0.08797,0.48785 -0.335898,0.79176 -0.767767,0.71179 -0.319903,-0.064 -0.439867,-0.48786 -0.223932,-0.72778 0.159952,-0.17595 0.703787,-0.19994 0.647804,0.18394 -0.04799,0.31191 -0.383884,0.13596 -0.52784,0.19994 0.143956,0.3199 0.647803,0.11996 0.687791,-0.15995 0.03199,-0.25592 -0.175947,-0.57583 -0.367888,-0.63181 -0.49585,-0.12796 -0.79176,0.62381 -1.231627,0.38388 -0.07198,-0.04 -0.103968,-0.096 -0.103968,-0.23992 -0.183945,0.26392 -1.095668,0.26392 -0.751773,-0.30391 -4.494637,0 -9.2212028,0 -13.6838498,-0.024 -0.159952,0 -0.799758,0.048 -0.831748,-0.08 -0.04799,-0.19994 0.415874,-0.13596 0.607816,-0.14396 1.815449,-0.096 3.710875,-0.024 5.462344,-0.024 H 24.860729 c 1.487549,0 3.271009,-0.016 4.070766,0 0.703787,0.016 2.11136,-0.016 3.502938,-0.016 h 4.654589 c 0.215935,0.016 0.447864,-0.048 0.591821,0.096 z m -17.810601,-3.56692 c 0.08797,0.10397 0.07998,0.43187 0.02399,0.56783 -0.143956,0.008 -0.375886,0.04 -0.583823,0 v 0.38388 c 0.159951,0.032 0.407876,-0.072 0.607816,0 0.03199,0.11996 0.03199,0.36789 0,0.48785 -0.159952,0.048 -0.375886,0.04 -0.583823,0.04 -0.04799,0.11197 -0.008,0.30391 -0.016,0.44786 0.19994,-0.008 0.439867,0.016 0.607816,-0.024 0.05598,0.11197 0.05598,0.36789 0.02399,0.50385 -0.319903,0.08 -0.79176,0.024 -1.175644,0.04 -0.08797,-0.74378 -0.03999,-1.69549 0,-2.44726 0.303908,-0.032 0.831748,-0.032 1.095668,0 z"
     id="path6"
     inkscape:connector-curvature="0"
     style="stroke-width:0.07997575" />
</svg>
