 <svg version="1.0" xmlns="http://www.w3.org/2000/svg" width="200" height="200" viewBox="0 0 700.000000 450.000000" preserveAspectRatio="xMidYMid meet">
<metadata>
Created by potrace 1.12, written by Peter Selinger 2001-2015
</metadata>
<g transform="translate(0.000000,450.000000) scale(0.100000,-0.100000)" fill="#000000" stroke="none">
<path d="M3558 4492 c-2 -6 -146 -90 -290 -170 -20 -12 -55 -32 -77 -46 -22
-15 -43 -26 -46 -26 -4 0 -25 -13 -48 -29 -23 -15 -62 -39 -87 -53 -42 -24
-105 -62 -385 -232 -154 -94 -244 -136 -292 -136 -45 0 -63 14 -137 110 -53
69 -84 82 -134 55 -46 -25 -61 -70 -43 -123 25 -73 62 -140 96 -175 34 -35 40
-37 97 -37 68 0 188 19 203 32 5 4 17 8 26 8 16 0 81 32 179 87 20 11 83 52
141 91 58 38 122 79 142 91 20 12 54 31 75 42 20 12 71 40 112 62 41 22 108
60 149 84 41 24 80 42 88 39 15 -6 16 -36 3 -128 -14 -95 -36 -154 -85 -223
-64 -90 -68 -103 -71 -196 -1 -48 -9 -101 -17 -121 -16 -37 -69 -79 -142 -113
-75 -34 -180 -85 -220 -108 -131 -73 -466 -294 -610 -402 -119 -89 -267 -171
-465 -257 -45 -19 -54 -24 -185 -98 -22 -12 -85 -56 -140 -98 -239 -181 -451
-374 -946 -864 -339 -334 -353 -355 -389 -573 -19 -116 -42 -205 -51 -205 -11
0 -12 -157 -1 -164 5 -3 21 -38 37 -78 33 -84 103 -223 145 -283 43 -63 150
-158 211 -187 30 -15 81 -34 114 -44 71 -21 249 -30 279 -15 12 6 57 22 101
36 44 14 89 30 100 34 57 23 78 33 170 77 185 89 364 205 524 339 115 97 299
287 397 410 70 88 274 386 274 399 0 3 16 30 35 60 19 30 35 58 35 61 0 3 11
22 23 43 13 20 46 78 72 127 26 50 64 119 83 155 19 36 65 124 102 195 37 72
97 187 133 256 56 109 88 163 205 348 30 47 102 196 102 210 0 13 24 92 77
251 84 250 168 363 259 346 20 -4 54 -26 86 -55 60 -55 138 -178 138 -217 0
-31 -35 -82 -129 -189 -39 -44 -71 -84 -71 -88 0 -5 -8 -21 -18 -35 -35 -50
-56 -187 -49 -329 5 -121 12 -154 44 -230 18 -42 68 -83 101 -83 15 0 40 7 56
15 15 8 32 15 37 15 21 0 119 74 150 113 87 107 161 240 188 337 7 25 17 55
21 66 16 40 22 207 10 274 -6 36 -13 79 -16 96 -6 33 -1 38 80 84 52 29 204
78 283 91 168 29 403 22 588 -17 103 -22 101 -19 85 -106 -7 -40 -16 -82 -20
-93 -4 -11 -13 -38 -19 -60 -7 -22 -16 -49 -21 -60 -4 -11 -25 -65 -45 -120
-20 -55 -41 -109 -46 -120 -14 -32 -76 -225 -87 -275 -6 -25 -17 -70 -24 -100
-18 -77 -17 -369 1 -435 43 -153 133 -234 260 -235 80 0 145 28 306 133 39 25
95 53 125 62 65 21 101 53 219 195 120 145 162 220 212 375 18 56 18 306 0
365 -20 65 -58 147 -91 195 -44 64 -154 170 -262 251 -61 47 -98 82 -98 93 0
10 18 58 40 107 112 247 189 360 303 447 52 39 129 77 158 77 23 0 56 -42 70
-91 7 -21 25 -54 42 -75 28 -34 33 -36 73 -30 24 3 77 22 118 42 41 19 80 33
86 29 5 -3 13 -24 16 -45 13 -80 102 -151 231 -184 81 -21 132 -20 216 5 58
17 79 29 118 71 38 38 49 57 49 81 0 50 -23 58 -122 45 -97 -13 -148 -6 -184
25 -26 23 -26 23 -14 97 6 41 10 129 8 195 l-3 120 -145 -1 c-100 -1 -162 -6
-200 -17 -30 -9 -66 -19 -80 -23 -27 -7 -201 -75 -266 -105 -23 -10 -67 -28
-99 -40 -56 -21 -59 -21 -72 -3 -7 10 -13 25 -13 34 0 8 -11 32 -25 53 -47 69
-114 48 -256 -81 -121 -110 -187 -152 -234 -152 -39 0 -41 25 -12 110 15 43
27 89 27 103 0 35 -44 69 -79 60 -34 -8 -206 -91 -296 -142 -38 -22 -78 -40
-87 -41 -18 0 -78 73 -78 95 0 6 -11 22 -25 35 -43 41 -109 38 -253 -9 -68
-23 -135 -41 -150 -41 -15 0 -43 -10 -62 -22 -80 -49 -302 -164 -412 -212
-134 -59 -264 -81 -318 -53 -43 22 -31 91 46 263 60 135 103 314 90 370 -4 16
-11 48 -16 72 -5 24 -12 48 -15 53 -7 11 -92 12 -97 1z m2840 -483 c5 -29 -37
-68 -94 -85 -42 -14 -57 -15 -66 -6 -18 18 18 62 73 90 48 25 82 25 87 1z
m-1760 -121 c20 -20 14 -48 -17 -79 -30 -29 -74 -39 -86 -18 -10 15 2 52 26
82 22 28 57 35 77 15z m401 -36 c5 -10 13 -53 17 -95 4 -46 14 -88 25 -107
l19 -30 94 0 c102 0 108 -3 98 -56 -7 -37 -38 -84 -100 -153 l-49 -54 -64 20
c-35 11 -91 25 -125 32 -72 13 -402 15 -453 2 -20 -5 -72 -17 -116 -27 -116
-24 -217 -60 -324 -113 l-93 -46 -26 35 c-62 84 -159 168 -236 205 -79 37
-169 65 -210 65 -37 0 -40 28 -7 61 28 28 33 29 119 29 109 0 155 15 347 110
185 91 250 119 296 126 34 6 39 4 52 -22 8 -16 17 -48 21 -72 15 -97 29 -144
53 -172 24 -29 28 -30 106 -30 134 0 170 19 307 160 89 91 120 113 195 138 42
14 43 14 54 -6z m-2009 -579 c0 -5 -12 -48 -26 -98 -14 -49 -34 -121 -44 -160
-43 -158 -104 -305 -157 -380 -40 -56 -53 -90 -53 -135 0 -29 -15 -63 -61
-142 -59 -99 -127 -229 -319 -603 -105 -205 -161 -309 -212 -394 -21 -34 -38
-65 -38 -68 0 -2 -11 -19 -25 -37 -14 -18 -25 -36 -25 -40 0 -13 -149 -223
-208 -294 -136 -164 -198 -218 -452 -397 -86 -60 -205 -145 -265 -187 -113
-82 -230 -145 -299 -161 -22 -5 -104 -12 -180 -14 -154 -5 -210 4 -264 44 -80
59 -191 255 -238 418 -18 65 -16 174 6 255 40 152 57 198 113 320 51 109 131
199 357 400 91 81 226 211 300 289 283 297 693 615 970 752 79 38 148 69 191
84 21 8 70 40 111 73 151 121 363 271 468 329 51 28 208 108 260 131 46 21 90
28 90 15z m2469 -265 c69 -34 186 -140 207 -188 11 -24 16 -37 43 -103 6 -15
11 -80 11 -144 0 -96 -4 -131 -25 -197 -52 -169 -162 -319 -297 -409 -100 -66
-184 -97 -283 -104 -65 -5 -75 -4 -81 11 -8 20 11 252 27 336 6 30 15 80 20
110 18 97 69 269 109 370 65 165 170 349 199 350 2 0 33 -14 70 -32z m-1708
-210 c16 -30 14 -153 -4 -201 -21 -58 -75 -129 -95 -125 -23 4 -27 64 -12 143
13 65 75 205 90 205 5 0 15 -10 21 -22z"></path>
</g>
</svg>