<?xml version="1.0" encoding="UTF-8" standalone="no"?>
<svg
   xmlns:dc="http://purl.org/dc/elements/1.1/"
   xmlns:cc="http://creativecommons.org/ns#"
   xmlns:rdf="http://www.w3.org/1999/02/22-rdf-syntax-ns#"
   xmlns:svg="http://www.w3.org/2000/svg"
   xmlns="http://www.w3.org/2000/svg"
   xmlns:sodipodi="http://sodipodi.sourceforge.net/DTD/sodipodi-0.dtd"
   xmlns:inkscape="http://www.inkscape.org/namespaces/inkscape"
   width="200"
   height="100"
   viewBox="0 0 283.93 86.85334"
   version="1.1"
   id="svg2"
   inkscape:version="0.92.2 5c3e80d, 2017-08-06"
   sodipodi:docname="kipling2.svg">
  <metadata
     id="metadata30">
    <rdf:RDF>
      <cc:Work
         rdf:about="">
        <dc:format>image/svg+xml</dc:format>
        <dc:type
           rdf:resource="http://purl.org/dc/dcmitype/StillImage" />
        <dc:title></dc:title>
      </cc:Work>
    </rdf:RDF>
  </metadata>
  <defs
     id="defs28">
    <clipPath
       clipPathUnits="userSpaceOnUse"
       id="clipPath69">
      <rect
         id="rect71"
         width="276.22046"
         height="111.5283"
         x="3.9999967"
         y="-35.660706"
         style="stroke-width:1.41964996" />
    </clipPath>
  </defs>
  <sodipodi:namedview
     pagecolor="#ffffff"
     bordercolor="#666666"
     borderopacity="1"
     objecttolerance="10"
     gridtolerance="10"
     guidetolerance="10"
     inkscape:pageopacity="0"
     inkscape:pageshadow="2"
     inkscape:window-width="1440"
     inkscape:window-height="855"
     id="namedview26"
     showgrid="false"
     fit-margin-top="5"
     fit-margin-left="5"
     fit-margin-right="5"
     fit-margin-bottom="5"
     inkscape:zoom="2.832"
     inkscape:cx="102.07669"
     inkscape:cy="99.609184"
     inkscape:window-x="0"
     inkscape:window-y="1"
     inkscape:window-maximized="1"
     inkscape:current-layer="svg2" />
  <g
     id="g65"
     transform="translate(1.0025777,25.264957)"
     clip-path="url(#clipPath69)">
    <g
       id="g37">
      <path
         d="m 3.9999966,-35.660705 12.0599994,-0.08949 c 0.01,22.6 0,45.21 0,67.809996 7.98,-9.949996 15.66,-20.129996 23.6,-30.109996 2.61,-0.03 5.21,-0.04 7.82,-0.02 -6.35,8.38 -13.13,16.45 -19.47,24.84 0.58,1.250006 1.42,2.350006 2.25,3.440006 7.84,9.87999 15.51,19.9 23.33,29.78999 -5.23,-0.12 -10.52,0.429999 -15.71,-0.23 -7.58,-8.64999 -14.29,-18.06999 -21.82,-26.78999 -0.05,9.03 0.11,18.06 -0.09,27.07999 l -11.9699994,-0.005 z"
         id="path8"
         inkscape:connector-curvature="0"
         style="fill:#000000"
         sodipodi:nodetypes="ccccccccccccc" />
      <path
         d="m 132.94,-35.7502 c 4.02,0 8.04,0 12.06,0 0.07,30.43 -0.14,60.86 0.11,91.280001 3.25,0.14 6.5,0.13 9.75,0.12 0.01,1.45 0.03,2.9 0.04,4.36 -5.65,-0.12 -11.34,0.439999 -16.95,-0.37 -3.34,-0.34 -5.33,-3.96 -5,-7.08 -0.03,-29.440001 0,-58.870001 -0.01,-88.310001 z"
         id="path10"
         inkscape:connector-curvature="0"
         style="fill:#000000" />
      <path
         d="m 59.359996,-23.0602 c 4.82,-3.02 12.43,0.57 11.92,6.59 0.63,5.03 -4.56,9.21 -9.37,8.05 -6.9,-0.82 -8.49,-11.44 -2.55,-14.64 z"
         id="path12"
         inkscape:connector-curvature="0"
         style="fill:#000000" />
      <path
         d="m 235.28,8.9198 c 5.44,-6 13.79,-8.71 21.74,-8.43 8.32,0.16 16.22,5.1 20.41,12.21 -1.48,1.33 -3.13,2.43 -4.72,3.61 -2.53,-3.55 -4.92,-7.47 -8.71,-9.84 -5.39,-3.25 -12.97,-1.61 -16.7,3.42 -3.32,4.49 -4.71,10.12 -5.24,15.6 -0.18,6.420001 -0.53,13.040001 1.69,19.190001 1.68,5.33 5.34,10.75 11.13,12.04 5.09,1.93 10.81,-1.68 12.59,-6.54 2.25,-5.99 1.02,-12.52 1.31,-18.76 3.72,0 7.43,0 11.15,0 -0.01,18.37 0.01,36.739999 -0.01,55.109999 h -11.13 c 0.07,-9.98 -0.19,-19.97 0.15,-29.939999 -4.46,2.86 -9.57,5.169999 -14.97,4.959999 -6.26,-0.28 -12.6,-2.409999 -17.21,-6.749999 -6.36,-5.85 -9.31,-14.76 -8.86,-23.28 C 227.49,23.4298 229.86,15.0498 235.28,8.9198 Z"
         id="path14"
         inkscape:connector-curvature="0"
         style="fill:#000000" />
      <path
         d="m 57.349996,1.9098 c 4.06,0 8.13,0 12.19,0 -0.02,19.38 0.04,38.760001 -0.02,58.140001 -4.04,-0.02 -8.08,-0.03 -12.12,0.02 -0.13,-19.39 -0.03,-38.770001 -0.05,-58.160001 z"
         id="path16"
         inkscape:connector-curvature="0"
         style="fill:#000000" />
      <path
         d="m 91.024996,1.8798 c -4.587496,-0.005 -9.195,0.135 -13.775,0.025 -0.01,28.200001 0,56.415001 0,84.625 h 12.15 c 0.02,-8.83 -0.02496,-17.67 0.02496,-26.499999 8.67,-0.17 17.955004,1.009999 25.975004,-3.05 6.04,-2.81 10.285,-8.575 12.125,-14.875 2.23,-7.73 2.295,-16.415001 -1.375,-23.725001 -3.99,-8.34 -12.475,-13.93 -21.425,-15.6 -4.54,-0.75 -9.112508,-0.895 -13.700004,-0.9 z m 0.675,4.45 c 5.415976,-0.07738 11.028754,0.68875 15.325004,4.25 6.18,5 7.57,13.395 8,20.875001 0.14,7.25 -0.845,15.53 -6.425,20.75 -5.31,4.64 -12.740004,3.34 -19.200004,3.35 0.03,-16.37 0.03,-32.745001 0,-49.125001 0.761248,-0.03875 1.526288,-0.08895 2.3,-0.1 z"
         id="path18"
         style="fill:#000000;fill-opacity:1"
         inkscape:connector-curvature="0" />
      <path
         d="m 157.36,1.9198 c 4.05,-0.01 8.11,-0.01 12.16,0 -0.02,19.38 0.03,38.750001 -0.02,58.130001 -4.04,-0.02 -8.07,-0.02 -12.11,0 -0.07,-19.37 0,-38.750001 -0.03,-58.130001 z"
         id="path20"
         inkscape:connector-curvature="0"
         style="fill:#000000" />
      <path
         d="m 215.66,1.9698 c 1.82,-0.04 3.64,-0.06 5.46,-0.1 0.08,18.22 0.04,36.440001 0.02,54.660001 -0.25,1.55 0.36,3.849999 -1.53,4.519999 -2.78,1.64 -5.88,-0.49 -7.29,-2.919999 -9.12,-13.59 -18.02,-27.32 -26.81,-41.120001 -1.3,-1.95 -2.57,-4.03 -4.68,-5.2 -0.57,16.07 -0.04,32.170001 -0.27,48.260001 -1.86,-0.02 -3.71,-0.04 -5.56,-0.05 0.01,-16.86 -0.02,-33.730001 0.01,-50.600001 -0.02,-3.37 2.54,-6.69 6,-7.03 4.1,-1.21 8.79,0.34 11.25,3.87 7.79,10.54 14.39,21.940001 22.21,32.440001 0.28,-0.12 0.83,-0.35 1.1,-0.46 C 215.83,26.1598 215.62,14.0598 215.66,1.9698 Z"
         id="path22"
         inkscape:connector-curvature="0"
         style="fill:#000000" />
      <path
         d="m 159.33939,-23.097972 c 4.82,-3.02 12.43,0.57 11.92,6.59 0.63,5.03 -4.56,9.21 -9.37,8.05 -6.9,-0.82 -8.49,-11.44 -2.55,-14.64 z"
         id="path12-4"
         inkscape:connector-curvature="0"
         style="fill:#000000" />
    </g>
  </g>
</svg>
