<?xml version="1.0" encoding="UTF-8" standalone="no"?>
<svg
   xmlns:dc="http://purl.org/dc/elements/1.1/"
   xmlns:cc="http://creativecommons.org/ns#"
   xmlns:rdf="http://www.w3.org/1999/02/22-rdf-syntax-ns#"
   xmlns:svg="http://www.w3.org/2000/svg"
   xmlns="http://www.w3.org/2000/svg"
   xmlns:sodipodi="http://sodipodi.sourceforge.net/DTD/sodipodi-0.dtd"
   xmlns:inkscape="http://www.inkscape.org/namespaces/inkscape"
   id="Layer_1"
   data-name="Layer 1"
   width="250"
   height="175"
   viewBox="0 0 636.77 158.0775"
   version="1.1"
   sodipodi:docname="nativeshoes.svg"
   inkscape:version="0.92.2 5c3e80d, 2017-08-06">
  <metadata
     id="metadata15">
    <rdf:RDF>
      <cc:Work
         rdf:about="">
        <dc:format>image/svg+xml</dc:format>
        <dc:type
           rdf:resource="http://purl.org/dc/dcmitype/StillImage" />
        <dc:title>Native Logo</dc:title>
      </cc:Work>
    </rdf:RDF>
  </metadata>
  <sodipodi:namedview
     pagecolor="#ffffff"
     bordercolor="#666666"
     borderopacity="1"
     objecttolerance="10"
     gridtolerance="10"
     guidetolerance="10"
     inkscape:pageopacity="0"
     inkscape:pageshadow="2"
     inkscape:window-width="805"
     inkscape:window-height="672"
     id="namedview13"
     showgrid="false"
     inkscape:zoom="1.18"
     inkscape:cx="125"
     inkscape:cy="100"
     inkscape:window-x="625"
     inkscape:window-y="0"
     inkscape:window-maximized="0"
     inkscape:current-layer="Layer_1" />
  <defs
     id="defs4">
    <style
       id="style2">.cls-1{fill:#00b6f2}</style>
  </defs>
  <title
     id="title6">Native Logo</title>
  <path
     class="cls-1"
     d="m 348.79,-21.127 q 8.08,4.82 18.66,3 c 7,-1.22 12.59,-4.22 16.6,-9 4.01,-4.78 5.41,-10.69 4.22,-17.59 -1.19,-6.9 -4.48,-12 -9.89,-15.31 -5.41,-3.31 -11.62,-4.36 -18.66,-3.17 -7.04,1.19 -12.58,4.28 -16.57,9.16 -3.99,4.88 -5.41,10.82 -4.24,17.73 1.17,6.91 4.48,12 9.88,15.17 m -154.37,95.7 a 4.83,4.83 0 0 1 -2.6,4.46 11.7,11.7 0 0 1 -6,1.5 8.67,8.67 0 0 1 -6.41,-2.33 c -1.55,-1.55 -2.31,-3.74 -2.31,-6.61 a 10.47,10.47 0 0 1 1.39,-5.73 10.7,10.7 0 0 1 3.71,-3.63 18.82,18.82 0 0 1 5.5,-2.14 51.26,51.26 0 0 1 6.68,-1.11 v 15.6 z m 51.23,9.89 v -50.33 c 0,-17.2 1.39,-32.63 -7.29,-40.55 -8.68,-7.92 -23.1,-12.31 -43.24,-11.86 -46.66,1 -55.62,23 -56.94,26.93 -1.67,5 -2,8 -2,10.55 0.06,1.51 0.28,4.27 1.32,5.81 1.34,1.94 4.21,2.56 12.6,-1 0,0 44.26,-19.07 44.26,4.2 v 3.6 a 161.77,161.77 0 0 0 -18.31,1.29 83.75,83.75 0 0 0 -23.22,6 51.23,51.23 0 0 0 -19.12,13.53 q -7.86,8.9 -7.87,23.86 0,10.6 3.38,18 a 31.32,31.32 0 0 0 9,11.87 36.5,36.5 0 0 0 13,6.57 56.73,56.73 0 0 0 15.34,2.07 c 10.7,0 24.82,-4.6 24.82,-4.6 10.14,-3.51 19,1.91 19,1.91 8.46,3.49 17.19,2.69 21.94,2.69 h 0.82 c 2.75,-0.12 14.61,-0.38 13.76,-8.36 -0.68,-6.3 -1.33,-22.11 -1.33,-22.11 m 80.75,-95.63 -10.64,0.06 c 0,0 -13.87,1 -13.86,-10.2 0,-18.12 -4.34,-22.79 -4.34,-22.79 a 21.55,21.55 0 0 0 -9.48,-7.22 c -4.25,-1.82 -10.2,-2.49 -17.84,-2.49 h -8.15 c -12.72,0 -11.32,13.62 -11.32,13.62 l 0.09,13.69 v 94.13 q 0,5.42 0.52,11.23 a 48.77,48.77 0 0 0 2.57,11.74 37.1,37.1 0 0 0 14.46,18.66 q 10.38,7.09 28.88,7.08 c 8.24,0 16.42,-1.94 22,-5.56 14.45,-9.39 17.15,-24.07 17.21,-27.23 0.27,-13.62 -13.21,-8.38 -13.21,-8.38 -3.4,1.16 -6.45,2.2 -9.55,2.2 -3.62,0 -6.45,-1 -8.51,-2.85 -2.06,-1.85 -3.1,-5.24 -3.1,-10.05 l -0.28,-9.3 v -11.69 c 0,-13.16 19,-19 19,-19 0,0 7.77,-3 9.74,-4.4 2.25,-1.58 3.91,-2.37 5.17,-5.6 1.52,-3.72 2.32,-12.31 2.32,-15.81 0.74,-10 -8.71,-9.82 -11.67,-9.84 m 63.56,20.1 a 19.88,19.88 0 0 0 -12.95,-17.2 c -4.13,-1.78 -9.94,-2.47 -17.45,-2.47 h -7.2 l -1,0.17 c -11.95,0 -10.86,13.13 -10.86,13.13 l 0.1,13.39 -0.13,67.92 a 113.8,113.8 0 0 0 0.61,12.09 21.43,21.43 0 0 0 3.66,10.13 21.09,21.09 0 0 0 9.28,7.08 c 4.17,1.79 10,2.44 17.46,2.44 h 7.2 c 11.45,0 11.89,-13.3 11.89,-13.3 l -0.11,-13.39 0.12,-67.94 A 117.19,117.19 0 0 0 389.9,8.953 m 129.67,-5.24 c 3.6,-12.1 -10,-15 -10,-15 0,0 -10.62,-1.19 -16,-1.19 q -13.41,0 -19.75,7.48 a 37.16,37.16 0 0 0 -8.12,18.06 l -5.15,21.26 a 186.31,186.31 0 0 1 -5.41,20 190.5,190.5 0 0 1 -5.43,-20 l -5.13,-21.27 a 37,37 0 0 0 -8.13,-18.06 q -6.33,-7.49 -19.75,-7.48 c -5.34,0 -15.94,1.19 -15.94,1.19 0,0 -13.67,2.86 -10.06,15 0.68,2.25 1.38,4.65 2.18,7.29 l 33.6,89.13 a 22.52,22.52 0 0 0 6.81,9.14 22.05,22.05 0 0 0 11.54,4.34 h 20.62 a 22.13,22.13 0 0 0 11.55,-4.28 22.56,22.56 0 0 0 6.8,-9.14 l 33.61,-89.13 c 0.78,-2.65 1.48,-5 2.16,-7.29 m -396.29,34.64 c 0,-1.72 0,-3.79 -0.11,-6.2 -0.11,-2.41 -0.17,-4.88 -0.28,-7.34 -0.11,-2.46 -0.24,-5 -0.49,-7.48 a 42.65,42.65 0 0 0 -1.16,-6.59 35.94,35.94 0 0 0 -12.14,-20.39 c -6.19,-5.15 -12.85,-7.75 -23.52,-7.75 -9.46,0 -16.56,1.68 -22.14,5 a 42.68,42.68 0 0 0 -7.18,5.22 c -1.86,1.72 -6.35,2.27 -8.39,0.32 a 37.71,37.71 0 0 0 -8.87,-6.7 c -6.6,-3.65 -39,-8.52 -39,10.67 l 0.06,79.7 c 0,0 0.19,12.46 0.62,16.46 a 22.51,22.51 0 0 0 3.89,10.71 22,22 0 0 0 9.79,7.49 c 4.39,1.89 10.54,2.58 18.45,2.58 2.76,0 5.93,-0.33 8.28,-0.33 12.62,0 11.49,-13.9 11.49,-13.9 v -59.55 c 0,0 -0.26,-8.82 9.42,-8.82 10.46,0 9.43,4 9.43,32 v 15.72 a 125.87,125.87 0 0 0 0.64,12.77 22.76,22.76 0 0 0 3.87,10.72 22.43,22.43 0 0 0 9.8,7.48 c 4.4,1.89 10.54,2.56 18.45,2.56 h 7.62 c 12.64,0 11.47,-13.9 11.47,-13.9 z m 437.37,13.08 a 34.15,34.15 0 0 1 -1,-5.58 14,14 0 0 1 0.19,-5.07 10.25,10.25 0 0 1 2.16,-4.31 13.18,13.18 0 0 1 4.92,-3.41 c 2.68,-1.15 5,-1.46 7,-0.91 a 6.56,6.56 0 0 1 4.32,3.95 8.4,8.4 0 0 1 0.58,5.16 5.24,5.24 0 0 1 -3.32,3.8 z m 6.13,16.59 c 7.45,-2.75 63.07,-24.75 63.07,-24.75 15.32,-7.62 -7.73,-38.41 -7.73,-38.41 -25.24,-30.43 -66,-17.71 -66,-17.71 -28.24,7.49 -37.2,28.25 -37.2,28.25 A 66.14,66.14 0 0 0 511,43.123 c -1,14.58 0.93,26.54 4.86,35.87 3.93,9.33 8.95,16.27 15.47,21.71 6.52,5.44 14.67,10.62 22.62,12.87 7.95,2.25 29.82,7.62 51,-2.74 5.73,-2.8 14.25,-8.66 19.74,-16.18 3.19,-4.37 9.58,-14 5.94,-20.83 -3.64,-6.83 -18.41,2.6 -26.91,5.92 -9.79,3.82 -29.87,8.41 -41.21,-4.46 0,0 -3.23,-4.39 4.22,-7.21"
     id="path8"
     inkscape:connector-curvature="0"
     style="fill:#00b6f2" />
  <path
     class="cls-1"
     d="m 579.2,80.553 a 5.66,5.66 0 0 1 -0.81,0 4.5,4.5 0 0 1 -2,-0.88 3.63,3.63 0 0 1 -1.25,-1.57 1.53,1.53 0 0 1 0.55,-1.85 1.81,1.81 0 0 1 1.83,-0.21 3.05,3.05 0 0 1 0.89,0.69 2,2 0 0 0 1.17,0.61 2.67,2.67 0 0 0 0.94,-0.17 2.09,2.09 0 0 0 1.08,-0.79 0.8,0.8 0 0 0 0.13,-0.76 0.93,0.93 0 0 0 -0.93,-0.53 14.57,14.57 0 0 0 -1.62,0.15 14,14 0 0 1 -1.78,0.11 h -0.6 a 3.91,3.91 0 0 1 -2,-0.66 3.47,3.47 0 0 1 -1.35,-1.77 3.78,3.78 0 0 1 -0.13,-2.23 4,4 0 0 1 1.26,-2 7.33,7.33 0 0 1 2.29,-1.36 6.58,6.58 0 0 1 2.07,-0.44 4.35,4.35 0 0 1 1.74,0.25 3.74,3.74 0 0 1 1.3,0.72 2.85,2.85 0 0 1 0.77,1.13 1.27,1.27 0 0 1 -0.52,1.56 1.88,1.88 0 0 1 -1.82,0.22 5.13,5.13 0 0 0 -1.37,-0.77 2.64,2.64 0 0 0 -1.77,0.33 0.89,0.89 0 0 0 -0.36,1.24 c 0.33,0.42 1.58,0.12 2.1,0.07 0.7,-0.09 1.34,-0.14 1.93,-0.16 a 7.66,7.66 0 0 1 1.75,0.18 3.58,3.58 0 0 1 1.46,0.8 3.77,3.77 0 0 1 1,1.58 4.36,4.36 0 0 1 0.2,2.41 4.31,4.31 0 0 1 -1.25,2.17 6.8,6.8 0 0 1 -2.43,1.49 7.09,7.09 0 0 1 -2.49,0.5 m 44.66,-16.81 a 5.65,5.65 0 0 1 -0.81,0 4.51,4.51 0 0 1 -2,-0.88 3.63,3.63 0 0 1 -1.25,-1.57 1.53,1.53 0 0 1 0.55,-1.85 1.81,1.81 0 0 1 1.83,-0.21 3,3 0 0 1 0.89,0.69 2,2 0 0 0 1.17,0.61 2.67,2.67 0 0 0 0.94,-0.17 2.08,2.08 0 0 0 1.08,-0.79 0.79,0.79 0 0 0 0.13,-0.76 0.92,0.92 0 0 0 -0.93,-0.53 14.8,14.8 0 0 0 -1.62,0.15 14,14 0 0 1 -1.78,0.11 h -0.59 a 3.92,3.92 0 0 1 -2,-0.66 3.46,3.46 0 0 1 -1.35,-1.77 3.77,3.77 0 0 1 -0.13,-2.23 4,4 0 0 1 1.26,-2 7.31,7.31 0 0 1 2.29,-1.36 6.58,6.58 0 0 1 2.07,-0.44 4.37,4.37 0 0 1 1.74,0.25 3.76,3.76 0 0 1 1.3,0.72 2.83,2.83 0 0 1 0.77,1.13 1.26,1.26 0 0 1 -0.52,1.56 1.88,1.88 0 0 1 -1.82,0.22 5.13,5.13 0 0 0 -1.37,-0.76 2.63,2.63 0 0 0 -1.77,0.33 0.89,0.89 0 0 0 -0.36,1.24 c 0.33,0.42 1.58,0.12 2.1,0.07 0.7,-0.09 1.34,-0.14 1.93,-0.16 a 7.76,7.76 0 0 1 1.75,0.18 3.58,3.58 0 0 1 1.46,0.8 3.78,3.78 0 0 1 1,1.58 4.37,4.37 0 0 1 0.2,2.41 4.32,4.32 0 0 1 -1.25,2.17 6.84,6.84 0 0 1 -2.43,1.49 7.11,7.11 0 0 1 -2.49,0.5 m -36.24,13.33 a 2.27,2.27 0 0 1 -1,-1.29 l -3.27,-8.72 a 2.22,2.22 0 0 1 -0.09,-1.61 1.75,1.75 0 0 1 1.12,-1.09 2,2 0 0 1 1.46,0.08 2.18,2.18 0 0 1 1.06,1.27 l 0.93,2.48 3.53,-1.31 -0.93,-2.51 a 2.29,2.29 0 0 1 -0.08,-1.63 1.82,1.82 0 0 1 1.09,-1.06 2.06,2.06 0 0 1 1.5,0.06 2.16,2.16 0 0 1 1,1.26 l 3.29,8.74 a 2.28,2.28 0 0 1 0.06,1.68 1.74,1.74 0 0 1 -1.1,1 1.91,1.91 0 0 1 -1.49,-0.06 2.33,2.33 0 0 1 -1,-1.3 l -1.15,-3.07 -3.52,1.4 1.16,3.06 a 2.17,2.17 0 0 1 0.06,1.65 2,2 0 0 1 -1.22,1.09 1.83,1.83 0 0 1 -1.4,-0.12 m 14.34,-15.6 a 3,3 0 0 0 -1,0.18 2.47,2.47 0 0 0 -0.9,0.57 2.09,2.09 0 0 0 -0.54,0.82 3.65,3.65 0 0 0 -0.16,1.21 5.87,5.87 0 0 0 0.37,1.57 4.65,4.65 0 0 0 0.78,1.42 2.81,2.81 0 0 0 0.92,0.83 2.11,2.11 0 0 0 1,0.31 2.65,2.65 0 0 0 1,-0.19 2.48,2.48 0 0 0 1.12,-0.79 2.54,2.54 0 0 0 0.49,-1.37 5,5 0 0 0 -0.34,-2.09 5.18,5.18 0 0 0 -1,-1.7 2.41,2.41 0 0 0 -1.27,-0.73 z m 0.12,10.34 h -0.17 a 5.63,5.63 0 0 1 -2.45,-0.61 6.44,6.44 0 0 1 -2,-1.63 9.16,9.16 0 0 1 -1.33,-2.39 8.35,8.35 0 0 1 -0.56,-2.69 6,6 0 0 1 0.45,-2.51 5.28,5.28 0 0 1 1.44,-2 6.72,6.72 0 0 1 2.34,-1.38 7.68,7.68 0 0 1 2.65,-0.52 6.61,6.61 0 0 1 0.92,0.06 5.72,5.72 0 0 1 3,1.48 8.37,8.37 0 0 1 1.94,3.06 8,8 0 0 1 0.57,2.67 6.22,6.22 0 0 1 -0.4,2.51 5.24,5.24 0 0 1 -1.46,2.03 7,7 0 0 1 -2.38,1.41 7.12,7.12 0 0 1 -2.59,0.51 m 9.56,-3.92 a 2.25,2.25 0 0 1 -1.09,-1.3 l -3.13,-8.34 a 2.88,2.88 0 0 1 -0.2,-1.11 1.6,1.6 0 0 1 0.5,-1.09 2.42,2.42 0 0 1 1,-0.6 l 5.92,-2.22 a 1.58,1.58 0 0 1 2.29,0.87 c 0.46,1.14 -0.29,1.8 -1.13,2.17 l -4.41,1.64 0.53,1.42 4,-1.51 a 1.54,1.54 0 0 1 2.18,0.75 1.59,1.59 0 0 1 -1,2.26 l -4,1.51 0.67,1.82 4.58,-1.71 c 1.25,-0.44 1.93,0 2.25,0.82 a 1.61,1.61 0 0 1 -1.07,2.28 l -6.1,2.3 a 2,2 0 0 1 -1.71,0 m 11.25,41.44 h -2.14 a 0.72,0.72 0 0 1 0,-1.44 h 5.85 a 0.72,0.72 0 0 1 0,1.44 h -2.15 v 6.67 a 0.78,0.78 0 0 1 -1.56,0 z m 5.19,-0.7 a 0.78,0.78 0 0 1 0.78,-0.78 h 0.16 a 0.82,0.82 0 0 1 0.72,0.42 l 2.67,4.18 2.68,-4.19 a 0.78,0.78 0 0 1 0.7,-0.4 H 636 a 0.78,0.78 0 0 1 0.78,0.78 v 7.38 a 0.77,0.77 0 0 1 -0.78,0.77 0.78,0.78 0 0 1 -0.77,-0.77 v -5.29 l -2.15,3.23 a 0.72,0.72 0 0 1 -1.3,0 l -2.14,-3.21 v 5.28 a 0.75,0.75 0 0 1 -0.77,0.76 0.74,0.74 0 0 1 -0.76,-0.76 z"
     id="path10"
     inkscape:connector-curvature="0"
     style="fill:#00b6f2" />
  <g
     id="g20"
     transform="translate(0,-33.11204)">
    <rect
       y="-114.73152"
       x="2.1585424"
       height="383.27185"
       width="637.15973"
       id="rect17"
       style="fill:none;stroke-width:2.54708004" />
  </g>
</svg>
