<svg class="home__logo" xmlns="http://www.w3.org/2000/svg" width="500" height="223" viewBox="0 0 500 222.7"><path d="M30.5 93.4c6.5 0 12.2 6.3 12.2 14.2 0 7.9-5.7 14.2-12.2 14.2 -6.5 0-12.2-6.3-12.2-14.2C18.3 99.7 24 93.4 30.5 93.4L30.5 93.4zM30.5 121.2c6.9 0 7.8-8.5 7.8-13.5 0-5-0.9-13.5-7.8-13.5 -6.9 0-7.8 8.5-7.8 13.5C22.7 112.6 23.6 121.2 30.5 121.2L30.5 121.2z"></path><path d="M58.8 94.4h-3.1v-0.6h3.1c1.2 0 2.5-0.1 3.2-1v27.7h3.1v0.6h-9.4v-0.6h3.1V94.4L58.8 94.4z"></path><path d="M80.2 106h-3.1v-0.6h3.1c1.2 0 2.5-0.1 3.2-0.8v16h3.1v0.6h-9.4v-0.6h3.1V106L80.2 106zM81.8 95.6c1.1 0 2 0.9 2 2 0 1.1-0.9 2-2 2 -1.1 0-2-0.9-2-2C79.9 96.5 80.7 95.6 81.8 95.6L81.8 95.6z"></path><path d="M100.3 106h-2.2v-0.6h8.8v0.6H104l4.8 11.7 3.8-8.6c0.4-1 0.7-1.7 0.7-2.1 0-0.9-1.1-1-1.7-1h-1.3v-0.6h6.7v0.6c-1.8 0-2.2 0.2-3 2l-6.3 14.1h-0.3L100.3 106 100.3 106z"></path><path d="M131.5 106h-3.1v-0.6h3.1c1.2 0 2.5-0.1 3.2-0.8v16h3.1v0.6h-9.4v-0.6h3.1V106L131.5 106zM133.2 95.6c1.1 0 2 0.9 2 2 0 1.1-0.9 2-2 2 -1.1 0-2-0.9-2-2C131.2 96.5 132.1 95.6 133.2 95.6L133.2 95.6z"></path><path d="M154.4 115.2c0 2.7 0.3 5.8 4 5.8 3.2 0 5.6-2.2 6.2-5.3h0.6c-0.6 3.5-3.2 5.9-6.8 5.9 -4.5 0-7.7-3.5-7.7-8.5 0-3.7 3-8.5 7.2-8.5 4.5 0 6.9 5.1 6.9 6.7 0 0.2-0.1 0.3-0.3 0.3h-10V115.2L154.4 115.2zM161.1 109.9c0-2.5-0.7-4.7-3.2-4.7 -2.7 0-3.5 2.3-3.5 4.7v1.1h6.4c0.2 0 0.3-0.1 0.3-0.3V109.9L161.1 109.9z"></path><path d="M180.7 106h-3.2v-0.6h3.2c1.2 0 2.5-0.1 3.2-0.8v4.5h0.1c0.5-1.7 1.8-4.5 5-4.5 1.4 0 2.5 0.9 2.5 2.3 0 1-0.6 1.8-1.8 1.8 -1.3 0-1.7-0.7-1.7-1.7 0-0.8 0.4-1.4 0.8-1.7 -0.2-0.1-0.3-0.1-0.5-0.1 -1.6 0-4.4 2.5-4.4 7.5v7.9h3.5v0.6h-10v-0.6h3.2V106L180.7 106z"></path><path d="M236 94.7h-0.8c-6.9 0-8.4 1-8.4 7.4h-0.6v-8h23.6v8h-0.6c0-6.3-1.5-7.4-8.4-7.4h-0.8v25.9h4v0.6H232v-0.6h4V94.7L236 94.7z"></path><path d="M265 94.4h-3v-0.6h3c1.2 0 2.5-0.1 3.2-1v15.6h0.1c1-1.8 2.9-3.9 5.7-3.9 4.1 0 5.3 2.1 5.3 4.3v11.7h3v0.6h-9.3v-0.6h3V108c0-2.1-1-2.8-2.3-2.8 -3.2 0-4.9 3.2-5.6 4.5v10.9h2.9v0.6H262v-0.6h3V94.4L265 94.4z"></path><path d="M298.7 115.2c0 2.7 0.3 5.8 4 5.8 3.2 0 5.6-2.2 6.2-5.3h0.6c-0.6 3.5-3.2 5.9-6.8 5.9 -4.5 0-7.7-3.5-7.7-8.5 0-3.7 3-8.5 7.2-8.5 4.5 0 6.9 5.1 6.9 6.7 0 0.2-0.1 0.3-0.3 0.3h-10V115.2L298.7 115.2zM305.4 109.9c0-2.5-0.7-4.7-3.2-4.7 -2.7 0-3.5 2.3-3.5 4.7v1.1h6.4c0.2 0 0.3-0.1 0.3-0.3V109.9L305.4 109.9z"></path><path d="M332.5 118l3.6-9.2c0.3-0.8 0.5-1.4 0.5-1.8 0-0.8-0.7-1-2.2-1h-1.6v-0.6h7.5v0.6c-2.5 0-2.6 0.5-3.5 2.7l-3.4 8.6c-1.1 2.7-2 5.2-2.2 5.8 -1.5 6-2.2 8.5-4.9 8.5 -1.2 0-2.1-0.7-2.1-2 0-1.1 0.7-1.8 1.8-1.8 1 0 1.6 0.7 1.6 1.5 0 0.3 0 0.4 0 0.6 0 0.2 0.1 0.4 0.3 0.4 1.3 0 2.6-6.5 2.9-7.8l-7.1-16.4h-2.1v-0.6h8.6v0.6h-2.8L332.5 118 332.5 118z"></path><path d="M353.2 115.6h0.5c0.3 2 1.3 5.4 5.3 5.4 2.1 0 3.7-1.4 3.7-3.6 0-3-2.3-3.1-4.3-3.3 -2.5-0.3-4.9-0.6-4.9-4.6 0-2.8 1.8-5 4.8-5 2.1 0 3.5 1.3 3.9 1.3 0.2 0 0.3-0.3 0.3-0.8v-0.3h0.5l0.2 4.6h-0.5c-0.3-2.2-1.4-4.2-4.5-4.2 -2 0-3.5 1.1-3.5 3.1 0 2 1.5 2.7 4 2.8l1.3 0.1c3.1 0.2 4.4 1.9 4.4 4.5 0 3.6-2.4 5.9-5.3 5.9 -3 0-4-1.7-4.7-1.7 -0.5 0-0.4 0.6-0.5 1.4h-0.6L353.2 115.6 353.2 115.6z"></path><path d="M380.5 94.4h-3v-0.6h3c1.2 0 2.5-0.1 3.2-1v21.4l6.2-5.9c0.8-0.8 1.3-1.5 1.3-1.8 0-0.4-0.5-0.6-1.7-0.6h-1.3v-0.6h8.1v0.6H395c-1.3 0-1.9 0.3-3.2 1.5l-4.3 4 6 7.5c0.8 1 1.2 1.5 1.9 1.5h2v0.6h-9.7v-0.6h2.8l-5.4-6.7 -1.3 1.3v5.4h2.7v0.6h-9v-0.6h3V94.4L380.5 94.4z"></path><path d="M414.2 115.2c0 2.7 0.3 5.8 4 5.8 3.2 0 5.6-2.2 6.2-5.3h0.6c-0.6 3.5-3.2 5.9-6.8 5.9 -4.5 0-7.7-3.5-7.7-8.5 0-3.7 3-8.5 7.2-8.5 4.5 0 6.9 5.1 6.9 6.7 0 0.2-0.1 0.3-0.3 0.3h-10V115.2L414.2 115.2zM420.9 109.9c0-2.5-0.7-4.7-3.2-4.7 -2.7 0-3.5 2.3-3.5 4.7v1.1h6.4c0.2 0 0.3-0.1 0.3-0.3V109.9L420.9 109.9z"></path><path d="M440.4 106h-3v-0.6h3c1.8 0 2.5 0 3.2-0.8v3.9h0.1c1-1.8 2.9-3.9 5.7-3.9 4.1 0 5.3 2.1 5.3 4.3v11.7h3v0.6h-9.3v-0.6h3V108c0-2.1-1-2.8-2.3-2.8 -3.2 0-4.9 3.2-5.6 4.5v10.9h2.9v0.6h-9.2v-0.6h3V106L440.4 106z"></path><path d="M470.9 115.6h0.5c0.3 2 1.3 5.4 5.3 5.4 2.1 0 3.7-1.4 3.7-3.6 0-3-2.3-3.1-4.3-3.3 -2.5-0.3-4.9-0.6-4.9-4.6 0-2.8 1.8-5 4.8-5 2.1 0 3.5 1.3 3.9 1.3 0.2 0 0.3-0.3 0.3-0.8v-0.3h0.5l0.2 4.6h-0.5c-0.3-2.2-1.4-4.2-4.5-4.2 -2 0-3.5 1.1-3.5 3.1 0 2 1.5 2.7 4 2.8l1.3 0.1c3.1 0.2 4.4 1.9 4.4 4.5 0 3.6-2.4 5.9-5.4 5.9 -3 0-4-1.7-4.7-1.7 -0.5 0-0.4 0.6-0.5 1.4h-0.6L470.9 115.6 470.9 115.6z"></path></svg>