<?xml version="1.0" encoding="UTF-8" standalone="no"?>
<svg
   xmlns:dc="http://purl.org/dc/elements/1.1/"
   xmlns:cc="http://creativecommons.org/ns#"
   xmlns:rdf="http://www.w3.org/1999/02/22-rdf-syntax-ns#"
   xmlns:svg="http://www.w3.org/2000/svg"
   xmlns="http://www.w3.org/2000/svg"
   xmlns:sodipodi="http://sodipodi.sourceforge.net/DTD/sodipodi-0.dtd"
   xmlns:inkscape="http://www.inkscape.org/namespaces/inkscape"
   class="home__logo"
   width="350"
   height="100"
   viewBox="0 0 538.46154 148.46667"
   version="1.1"
   id="svg34"
   sodipodi:docname="theyskens.svg"
   inkscape:version="0.92.2 5c3e80d, 2017-08-06">
  <metadata
     id="metadata40">
    <rdf:RDF>
      <cc:Work
         rdf:about="">
        <dc:format>image/svg+xml</dc:format>
        <dc:type
           rdf:resource="http://purl.org/dc/dcmitype/StillImage" />
        <dc:title></dc:title>
      </cc:Work>
    </rdf:RDF>
  </metadata>
  <defs
     id="defs38" />
  <sodipodi:namedview
     pagecolor="#ffffff"
     bordercolor="#666666"
     borderopacity="1"
     objecttolerance="10"
     gridtolerance="10"
     guidetolerance="10"
     inkscape:pageopacity="0"
     inkscape:pageshadow="2"
     inkscape:window-width="1097"
     inkscape:window-height="700"
     id="namedview36"
     showgrid="false"
     inkscape:zoom="0.99692308"
     inkscape:cx="162.5"
     inkscape:cy="75"
     inkscape:window-x="0"
     inkscape:window-y="0"
     inkscape:window-maximized="0"
     inkscape:current-layer="svg34" />
  <path
     d="m 28.762565,58.436644 c 7.213655,0 13.539479,6.991702 13.539479,15.759073 0,8.767369 -6.325824,15.759078 -13.539479,15.759078 -7.213661,0 -13.539488,-6.991709 -13.539488,-15.759078 0,-8.767371 6.325827,-15.759073 13.539488,-15.759073 z m 0,30.852265 c 7.657571,0 8.656389,-9.433242 8.656389,-14.982211 0,-5.548975 -0.998818,-14.982218 -8.656389,-14.982218 -7.65758,0 -8.656393,9.433243 -8.656393,14.982218 0,5.437994 0.998813,14.982211 8.656393,14.982211 z"
     id="path2"
     inkscape:connector-curvature="0"
     style="stroke-width:1.10979342" />
  <path
     d="m 60.169725,59.546438 h -3.44036 v -0.665876 h 3.44036 c 1.331753,0 2.774483,-0.110981 3.55134,-1.109794 v 30.741288 h 3.440361 v 0.665878 H 56.729365 v -0.665878 h 3.44036 z"
     id="path4"
     inkscape:connector-curvature="0"
     style="stroke-width:1.10979342" />
  <path
     d="m 83.919307,72.420052 h -3.440359 v -0.665876 h 3.440359 c 1.331754,0 2.774491,-0.110986 3.551345,-0.887839 V 88.62304 h 3.440361 v 0.665869 H 80.478948 V 88.62304 h 3.440359 z m 1.775678,-11.541861 c 1.220774,0 2.219585,0.998813 2.219585,2.21959 0,1.220771 -0.998811,2.219587 -2.219585,2.219587 -1.220774,0 -2.219586,-0.998816 -2.219586,-2.219587 0.110971,-1.220777 0.998812,-2.21959 2.219586,-2.21959 z"
     id="path6"
     inkscape:connector-curvature="0"
     style="stroke-width:1.10979342" />
  <path
     d="m 106.22616,72.420052 h -2.44157 v -0.665876 h 9.7662 v 0.665876 h -3.21837 l 5.32703,12.984585 4.21717,-9.544225 c 0.4439,-1.109796 0.77685,-1.886649 0.77685,-2.330568 0,-0.998816 -1.22072,-1.109792 -1.88662,-1.109792 h -1.44274 v -0.665876 h 7.43559 v 0.665876 c -1.99762,0 -2.44148,0.221954 -3.32934,2.219585 l -6.99171,15.648094 h -0.33293 z"
     id="path8"
     inkscape:connector-curvature="0"
     style="stroke-width:1.10979342" />
  <path
     d="m 140.85175,72.420052 h -3.4404 v -0.665876 h 3.4404 c 1.33172,0 2.7745,-0.110986 3.55131,-0.887839 V 88.62304 h 3.44038 v 0.665869 H 137.41135 V 88.62304 h 3.4404 z m 1.88664,-11.541861 c 1.2208,0 2.2196,0.998813 2.2196,2.21959 0,1.220771 -0.9988,2.219587 -2.2196,2.219587 -1.22077,0 -2.21959,-0.998816 -2.21959,-2.219587 0,-1.220777 0.99882,-2.21959 2.21959,-2.21959 z"
     id="path10"
     inkscape:connector-curvature="0"
     style="stroke-width:1.10979342" />
  <path
     d="m 166.26605,82.63015 c 0,2.996441 0.33291,6.436805 4.43917,6.436805 3.55132,0 6.2148,-2.441555 6.88069,-5.881915 h 0.6659 c -0.6659,3.884283 -3.5514,6.547785 -7.54659,6.547785 -4.99411,0 -8.54543,-3.884281 -8.54543,-9.433244 0,-4.106236 3.32934,-9.433244 7.99049,-9.433244 4.9941,0 7.65758,5.659945 7.65758,7.435616 0,0.221953 -0.11097,0.332946 -0.33295,0.332946 h -11.09795 v 3.995251 z m 7.43555,-5.881898 c 0,-2.774489 -0.77679,-5.216039 -3.55132,-5.216039 -2.99639,0 -3.88423,2.552519 -3.88423,5.216039 v 1.220761 h 7.10262 c 0.22199,0 0.33293,-0.110968 0.33293,-0.33293 z"
     id="path12"
     inkscape:connector-curvature="0"
     style="stroke-width:1.10979342" />
  <path
     d="m 195.45362,72.420052 h -3.55137 v -0.665876 h 3.55137 c 1.33175,0 2.77444,-0.110986 3.55134,-0.887839 v 4.994075 h 0.11096 c 0.55493,-1.886649 1.99764,-4.994075 5.54899,-4.994075 1.5537,0 2.77446,0.998809 2.77446,2.55252 0,1.109794 -0.66586,1.997633 -1.9976,1.997633 -1.44273,0 -1.88666,-0.776853 -1.88666,-1.886646 0,-0.887838 0.44393,-1.553713 0.88785,-1.886654 -0.22199,-0.110979 -0.33292,-0.110979 -0.55492,-0.110979 -1.77563,0 -4.88305,2.774485 -4.88305,8.323455 v 8.767373 h 3.88426 v 0.665869 h -11.09796 v -0.665869 h 3.55133 V 72.420052 Z"
     id="path14"
     inkscape:connector-curvature="0"
     style="stroke-width:1.10979342" />
  <path
     d="m 256.8252,59.879377 h -0.88782 c -7.65758,0 -9.32229,1.109794 -9.32229,8.212475 h -0.66589 v -8.878351 h 26.19116 v 8.878351 h -0.66588 c 0,-6.9917 -1.66472,-8.212475 -9.32232,-8.212475 h -0.88779 V 88.62304 h 4.43919 v 0.665869 H 252.38603 V 88.62304 h 4.43917 z"
     id="path16"
     inkscape:connector-curvature="0"
     style="stroke-width:1.10979342" />
  <path
     d="m 289.00922,59.546438 h -3.32941 v -0.665876 h 3.32941 c 1.33176,0 2.77448,-0.110981 3.55133,-1.109794 v 17.312786 h 0.11099 c 1.10983,-1.99763 3.21839,-4.328201 6.32582,-4.328201 4.55016,0 5.88194,2.330571 5.88194,4.772121 v 12.984582 h 3.32935 v 0.665878 h -10.32106 v -0.665878 h 3.32936 V 74.639637 c 0,-2.330572 -1.10977,-3.107424 -2.55253,-3.107424 -3.55132,0 -5.43798,3.551341 -6.21482,4.994069 V 88.62304 h 3.21841 v 0.665869 h -9.98818 V 88.62304 h 3.32942 z"
     id="path18"
     inkscape:connector-curvature="0"
     style="stroke-width:1.10979342" />
  <path
     d="m 326.40924,82.63015 c 0,2.996441 0.33294,6.436805 4.43919,6.436805 3.55135,0 6.21487,-2.441555 6.88075,-5.881915 h 0.66585 c -0.66585,3.884283 -3.55132,6.547785 -7.5466,6.547785 -4.99406,0 -8.54541,-3.884281 -8.54541,-9.433244 0,-4.106236 3.32939,-9.433244 7.99052,-9.433244 4.99406,0 7.65758,5.659945 7.65758,7.435616 0,0.221953 -0.11101,0.332946 -0.33294,0.332946 h -11.09792 v 3.995251 z m 7.43565,-5.881898 c 0,-2.774489 -0.77688,-5.216039 -3.55135,-5.216039 -2.99644,0 -3.8843,2.552519 -3.8843,5.216039 v 1.220761 h 7.10272 c 0.22193,0 0.33293,-0.110968 0.33293,-0.33293 z"
     id="path20"
     inkscape:connector-curvature="0"
     style="stroke-width:1.10979342" />
  <path
     d="m 363.92029,85.737571 3.99528,-10.210097 c 0.33292,-0.887837 0.55487,-1.553711 0.55487,-1.99763 0,-0.887838 -0.77686,-1.109792 -2.44154,-1.109792 h -1.77568 v -0.665876 h 8.32346 v 0.665876 c -2.77446,0 -2.88547,0.554886 -3.88429,2.996438 l -3.7733,9.54423 c -1.22077,2.996442 -2.21957,5.770919 -2.44152,6.4368 -1.66472,6.658762 -2.44157,9.43325 -5.438,9.43325 -1.33175,0 -2.33058,-0.77684 -2.33058,-2.21959 0,-1.220769 0.77689,-1.997634 1.99765,-1.997634 1.10978,0 1.77564,0.776865 1.77564,1.664689 0,0.332945 0,0.443933 0,0.665887 0,0.221953 0.11101,0.443923 0.33296,0.443923 1.44274,0 2.88546,-7.213662 3.21839,-8.656406 l -7.87951,-18.200611 h -2.33059 v -0.665882 h 9.54422 v 0.665882 h -3.10741 z"
     id="path22"
     inkscape:connector-curvature="0"
     style="stroke-width:1.10979342" />
  <path
     d="m 386.89302,83.074074 h 0.55489 c 0.33295,2.219583 1.44275,5.992881 5.88193,5.992881 2.33055,0 4.10623,-1.553717 4.10623,-3.995252 0,-3.329377 -2.55254,-3.440377 -4.77212,-3.66233 -2.77448,-0.332933 -5.43798,-0.665869 -5.43798,-5.105053 0,-3.107416 1.99763,-5.548967 5.32698,-5.548967 2.33058,0 3.88428,1.442732 4.32821,1.442732 0.22195,0 0.33295,-0.332939 0.33295,-0.887827 v -0.33294 h 0.5549 l 0.22195,5.105049 h -0.55489 c -0.33296,-2.441544 -1.5537,-4.66114 -4.99408,-4.66114 -2.21959,0 -3.88426,1.220779 -3.88426,3.440363 0,2.219584 1.66467,2.996455 4.43917,3.107423 L 394.43963,78.08 c 3.44034,0.221954 4.88309,2.108601 4.88309,4.994075 0,3.995249 -2.66353,6.547775 -5.88192,6.547775 -3.32937,0 -4.43917,-1.886657 -5.21602,-1.886657 -0.55492,0 -0.44392,0.665886 -0.55492,1.553717 h -0.66585 z"
     id="path24"
     inkscape:connector-curvature="0"
     style="stroke-width:1.10979342" />
  <path
     d="m 417.19041,59.546438 h -3.3294 v -0.665876 h 3.3294 c 1.33173,0 2.77448,-0.110981 3.55133,-1.109794 v 23.749588 l 6.88071,-6.547785 c 0.88783,-0.887839 1.44274,-1.664693 1.44274,-1.997633 0,-0.44391 -0.55491,-0.665873 -1.88666,-0.665873 h -1.44271 V 71.64319 h 8.98934 v 0.665875 h -1.44276 c -1.44272,0 -2.1086,0.332941 -3.55132,1.664698 l -4.77214,4.439166 6.65877,8.323471 c 0.88783,1.109777 1.33174,1.664678 2.10861,1.664678 h 2.21959 v 0.665877 h -10.76499 v -0.665877 h 3.10742 l -5.99291,-7.435621 -1.44271,1.442731 v 5.99289 h 2.99644 v 0.665877 h -9.98815 v -0.665877 h 3.3294 z"
     id="path26"
     inkscape:connector-curvature="0"
     style="stroke-width:1.10979342" />
  <path
     d="m 454.59044,82.63015 c 0,2.996441 0.33293,6.436805 4.43916,6.436805 3.55136,0 6.21486,-2.441555 6.88074,-5.881915 h 0.66587 c -0.66587,3.884283 -3.55132,6.547785 -7.54661,6.547785 -4.99407,0 -8.54539,-3.884281 -8.54539,-9.433244 0,-4.106236 3.32937,-9.433244 7.9905,-9.433244 4.99409,0 7.65759,5.659945 7.65759,7.435616 0,0.221953 -0.11101,0.332946 -0.33293,0.332946 h -11.09795 v 3.995251 z m 7.43564,-5.881898 c 0,-2.774489 -0.77687,-5.216039 -3.55137,-5.216039 -2.99643,0 -3.88427,2.552519 -3.88427,5.216039 v 1.220761 h 7.10269 c 0.22194,0 0.33295,-0.110968 0.33295,-0.33293 z"
     id="path28"
     inkscape:connector-curvature="0"
     style="stroke-width:1.10979342" />
  <path
     d="m 483.66706,72.420052 h -3.3294 v -0.665876 h 3.3294 c 1.99761,0 2.77448,0 3.55132,-0.887839 v 4.328199 h 0.11101 c 1.1098,-1.997632 3.2184,-4.328199 6.32585,-4.328199 4.55013,0 5.88189,2.330567 5.88189,4.772109 V 88.62304 h 3.32937 v 0.665869 H 492.54544 V 88.62304 h 3.32937 V 74.639637 c 0,-2.330572 -1.10979,-3.107424 -2.55254,-3.107424 -3.55133,0 -5.43798,3.551341 -6.21483,4.994069 V 88.62304 h 3.21838 v 0.665869 h -10.2101 V 88.62304 h 3.3294 V 72.420052 Z"
     id="path30"
     inkscape:connector-curvature="0"
     style="stroke-width:1.10979342" />
  <path
     d="m 517.51576,83.074074 h 0.55489 c 0.33296,2.219583 1.44275,5.992881 5.8819,5.992881 2.33057,0 4.10623,-1.553717 4.10623,-3.995252 0,-3.329377 -2.55251,-3.440377 -4.77212,-3.66233 -2.77447,-0.332933 -5.43797,-0.665869 -5.43797,-5.105053 0,-3.107416 1.99763,-5.548967 5.32703,-5.548967 2.33055,0 3.88427,1.442732 4.32817,1.442732 0.22197,0 0.33294,-0.332939 0.33294,-0.887827 v -0.33294 h 0.55491 l 0.22196,5.105049 h -0.55492 c -0.33292,-2.441544 -1.5537,-4.66114 -4.99407,-4.66114 -2.21957,0 -3.88427,1.220779 -3.88427,3.440363 0,2.219584 1.6647,2.996455 4.43919,3.107423 L 525.06235,78.08 c 3.44034,0.221954 4.8831,2.108601 4.8831,4.994075 0,3.995249 -2.66352,6.547775 -5.9929,6.547775 -3.32936,0 -4.43915,-1.886657 -5.21603,-1.886657 -0.55488,0 -0.44391,0.665886 -0.55488,1.553717 h -0.66588 z"
     id="path32"
     inkscape:connector-curvature="0"
     style="stroke-width:1.10979342" />
</svg>
