<svg xmlns="http://www.w3.org/2000/svg" height="200" width="200" viewBox="0 0 240 243.699">
<title>Veja (brand)</title>
<rect fill="#FFF" height="202.11" width="182.22" y="22.978" x="28.232"/>
<polygon points="178.58,188.23,174.85,180.96,171.15,188.23"/>
<path d="M145.41,128.89h-52.227l-44.277-69.223h40.634l30.147,48.322,30.855-54.645c8.034-14.233,19.634-13.23,24.387-13.23h20.71l-50.23,88.775zm40.03,73.02l-3.059-6.101h-15.091l-3.106,6.101h-8.588l19.217-37.988,19.267,37.988h-8.635zm-36.64-13.95c0,3.059-0.217,5.615-1.664,8.35-1.932,3.481-5.422,5.772-9.24,6.369,0,0-1.895,0.351-4.232,0-6.601-0.998-10.576-6.211-10.79-12.863h7.624c0.094,2.343,0.96,4.139,3.166,5.125,0,0,2.201,0.759,4.232,0,3.008-1.199,3.178-3.764,3.178-6.596v-22.78h7.727v22.398zm-32.54-14.77h-18.405v6.758h11.605v7.629h-11.605v6.706h18.405v7.628h-26.085v-36.36h26.085v7.632zm-52.575,30.41l-19.318-38.04h8.635l10.722,21.072,10.649-21.072h8.588l-19.276,38.04zm157.98-203.6h-203.33l-18.341,18.619v206.46l18.341,18.618h203.33l18.33-18.62v-206.46l-18.33-18.619z"/>
</svg>
